<?xml version="1.0" encoding="UTF-8" standalone="no"?>
<svg
   xmlns:dc="http://purl.org/dc/elements/1.1/"
   xmlns:cc="http://creativecommons.org/ns#"
   xmlns:rdf="http://www.w3.org/1999/02/22-rdf-syntax-ns#"
   xmlns:svg="http://www.w3.org/2000/svg"
   xmlns="http://www.w3.org/2000/svg"
   xmlns:xlink="http://www.w3.org/1999/xlink"
   xmlns:sodipodi="http://sodipodi.sourceforge.net/DTD/sodipodi-0.dtd"
   xmlns:inkscape="http://www.inkscape.org/namespaces/inkscape"
   width="657.64pt"
   height="657.64pt"
   viewBox="0 0 657.64 657.64"
   version="1.2"
   id="svg75"
   sodipodi:docname="covhack20.svg"
   inkscape:export-filename="/home/a/Desktop/hexbin/hexagons/covhack20.png"
   inkscape:export-xdpi="22.8818"
   inkscape:export-ydpi="22.8818"
   inkscape:version="0.92.4 (5da689c313, 2019-01-14)">
  <metadata
     id="metadata79">
    <rdf:RDF>
      <cc:Work
         rdf:about="">
        <dc:format>image/svg+xml</dc:format>
        <dc:type
           rdf:resource="http://purl.org/dc/dcmitype/StillImage" />
        <dc:title></dc:title>
      </cc:Work>
    </rdf:RDF>
  </metadata>
  <sodipodi:namedview
     pagecolor="#ffffff"
     bordercolor="#666666"
     borderopacity="1"
     objecttolerance="10"
     gridtolerance="10"
     guidetolerance="10"
     inkscape:pageopacity="0"
     inkscape:pageshadow="2"
     inkscape:window-width="2560"
     inkscape:window-height="1052"
     id="namedview77"
     showgrid="false"
     inkscape:zoom="0.26914421"
     inkscape:cx="-83.598307"
     inkscape:cy="438.42668"
     inkscape:window-x="0"
     inkscape:window-y="0"
     inkscape:window-maximized="1"
     inkscape:current-layer="svg75" />
  <defs
     id="defs52">
    <clipPath
       id="clip1">
      <path
         d="M 44 0 L 614 0 L 614 657.640625 L 44 657.640625 Z M 44 0 "
         id="path2" />
    </clipPath>
    <filter
       id="alpha"
       filterUnits="objectBoundingBox"
       x="0%"
       y="0%"
       width="100%"
       height="100%">
      <feColorMatrix
         type="matrix"
         in="SourceGraphic"
         values="0 0 0 0 1 0 0 0 0 1 0 0 0 0 1 0 0 0 1 0"
         id="feColorMatrix5" />
    </filter>
    <mask
       id="mask0">
      <g
         filter="url(#alpha)"
         id="g10">
        <rect
           x="0"
           y="0"
           width="657.64"
           height="657.64"
           style="fill:rgb(0%,0%,0%);fill-opacity:0.330002;stroke:none;"
           id="rect8" />
      </g>
    </mask>
    <clipPath
       id="clip3">
      <path
         d="M 0.0664062 0.824219 L 210.632812 0.824219 L 210.632812 532.714844 L 0.0664062 532.714844 Z M 0.0664062 0.824219 "
         id="path13" />
    </clipPath>
    <clipPath
       id="clip2">
      <rect
         x="0"
         y="0"
         width="211"
         height="533"
         id="rect16" />
    </clipPath>
    <g
       id="surface747"
       clip-path="url(#clip2)">
      <g
         clip-path="url(#clip3)"
         clip-rule="nonzero"
         id="g21">
        <path
           style=" stroke:none;fill-rule:nonzero;fill:rgb(100%,100%,100%);fill-opacity:1;"
           d="M 174.390625 416.21875 C 153.496094 378.382812 143.054688 327.960938 143.054688 264.992188 C 143.054688 202.019531 153.496094 151.613281 174.390625 113.761719 C 183.710938 96.867188 194.363281 83.75 206.332031 74.394531 L 78.90625 0.824219 C 60.707031 22.613281 45.308594 48.488281 32.722656 78.460938 C 10.949219 130.3125 0.0664062 192.476562 0.0664062 264.992188 C 0.0664062 337.503906 10.949219 399.523438 32.722656 451.042969 C 46.136719 482.800781 62.746094 510.019531 82.539062 532.714844 L 210.632812 458.761719 C 196.898438 449.300781 184.816406 435.121094 174.390625 416.21875 "
           id="path19" />
      </g>
    </g>
    <mask
       id="mask1">
      <g
         filter="url(#alpha)"
         id="g26">
        <rect
           x="0"
           y="0"
           width="657.64"
           height="657.64"
           style="fill:rgb(0%,0%,0%);fill-opacity:0.330002;stroke:none;"
           id="rect24" />
      </g>
    </mask>
    <clipPath
       id="clip5">
      <path
         d="M 0.0546875 0.351562 L 284.820312 0.351562 L 284.820312 613.640625 L 0.0546875 613.640625 Z M 0.0546875 0.351562 "
         id="path29" />
    </clipPath>
    <clipPath
       id="clip4">
      <rect
         x="0"
         y="0"
         width="285"
         height="614"
         id="rect32" />
    </clipPath>
    <g
       id="surface750"
       clip-path="url(#clip4)">
      <g
         clip-path="url(#clip5)"
         clip-rule="nonzero"
         id="g37">
        <path
           style=" stroke:none;fill-rule:nonzero;fill:rgb(100%,100%,100%);fill-opacity:1;"
           d="M 181.550781 328.742188 C 208.03125 303.933594 229.355469 276.265625 245.542969 245.734375 C 261.722656 215.203125 269.816406 182.136719 269.816406 146.503906 C 269.816406 112.796875 260.992188 79.71875 243.335938 47.277344 C 233.96875 30.0625 222.171875 14.433594 207.996094 0.351562 L 69.792969 80.144531 C 79.835938 84.511719 88.269531 90.875 95.050781 99.277344 C 109.175781 116.78125 116.238281 136.339844 116.238281 157.957031 C 116.238281 184.671875 109.175781 209.164062 95.050781 231.421875 C 80.929688 253.695312 61.511719 279.128906 36.796875 307.75 L 0.0546875 348.871094 L 0.0546875 449.230469 L 284.820312 613.640625 L 284.824219 613.636719 L 284.824219 469 L 36.796875 469 Z M 181.550781 328.742188 "
           id="path35" />
      </g>
    </g>
    <clipPath
       id="clip6">
      <path
         d="M 162 163 L 390 163 L 390 495 L 162 495 Z M 162 163 "
         id="path40" />
    </clipPath>
    <clipPath
       id="clip7">
      <path
         d="M 76.507812 0 L 0 285.527344 L 0 581.132812 L 285.53125 657.640625 L 581.132812 657.640625 L 657.640625 372.109375 L 657.640625 76.507812 L 372.109375 0 Z M 76.507812 0 "
         id="path43" />
    </clipPath>
    <clipPath
       id="clip8">
      <path
         d="M 253 170 L 471 170 L 471 488 L 253 488 Z M 253 170 "
         id="path46" />
    </clipPath>
    <clipPath
       id="clip9">
      <path
         d="M 76.507812 0 L 0 285.527344 L 0 581.132812 L 285.53125 657.640625 L 581.132812 657.640625 L 657.640625 372.109375 L 657.640625 76.507812 L 372.109375 0 Z M 76.507812 0 "
         id="path49" />
    </clipPath>
  </defs>
  <g
     id="surface743">
    <g
       clip-path="url(#clip1)"
       clip-rule="nonzero"
       id="g56">
      <path
         style=" stroke:none;fill-rule:nonzero;fill:rgb(0%,68.235779%,93.725586%);fill-opacity:1;"
         d="M 328.820312 0 L 44.054688 164.410156 L 44.054688 493.230469 L 328.820312 657.640625 L 613.585938 493.230469 L 613.585938 164.410156 Z M 328.820312 0 "
         id="path54" />
    </g>
    <use
       xlink:href="#surface747"
       transform="matrix(1,0,0,1,357,61)"
       mask="url(#mask0)"
       id="use58" />
    <use
       xlink:href="#surface750"
       transform="matrix(1,0,0,1,44,43)"
       mask="url(#mask1)"
       id="use60" />
    <g
       clip-path="url(#clip6)"
       clip-rule="nonzero"
       id="g66">
      <g
         clip-path="url(#clip7)"
         clip-rule="nonzero"
         id="g64">
        <path
           style=" stroke:none;fill-rule:nonzero;fill:rgb(100%,100%,100%);fill-opacity:1;"
           d="M 167.851562 245.21875 C 170.363281 235.082031 174.234375 225.480469 179.289062 216.355469 C 182.511719 210.539062 186.324219 205.128906 190.632812 200.046875 C 196.277344 193.382812 202.777344 187.683594 209.980469 182.804688 C 218.695312 176.894531 228.15625 172.496094 238.238281 169.40625 C 248.9375 166.128906 259.898438 164.53125 271.042969 164.070312 C 280.398438 163.679688 289.722656 164.117188 299.023438 165.246094 C 306.824219 166.195312 314.476562 167.855469 321.929688 170.242188 C 333.695312 174.015625 344.550781 179.589844 354.179688 187.460938 C 360.890625 192.945312 366.640625 199.285156 371.46875 206.4375 C 378.265625 216.5 383.015625 227.511719 385.917969 239.28125 C 387.195312 244.46875 388.40625 249.730469 388.941406 255.03125 C 389.757812 263.167969 386.308594 269.65625 379.726562 274.40625 C 372.359375 279.71875 361.914062 279.972656 354.316406 275.011719 C 348.617188 271.289062 345.417969 265.941406 344.300781 259.214844 C 343.242188 252.8125 341.519531 246.570312 338.863281 240.625 C 336.0625 234.359375 332.636719 228.464844 328.046875 223.320312 C 323.097656 217.773438 317.226562 213.394531 310.648438 209.953125 C 305.152344 207.082031 299.277344 205.339844 293.199219 204.191406 C 286.570312 202.9375 279.882812 202.597656 273.164062 202.898438 C 264.171875 203.296875 255.46875 205.078125 247.335938 209.03125 C 234.414062 215.316406 224.617188 224.925781 217.9375 237.605469 C 215.808594 241.644531 214.199219 245.96875 212.511719 250.226562 C 211.628906 252.445312 211.011719 254.777344 210.40625 257.089844 C 208.703125 263.59375 207.441406 270.203125 207.207031 276.910156 C 206.855469 287.007812 206.8125 297.117188 206.773438 307.21875 C 206.710938 323.285156 206.703125 339.34375 206.78125 355.40625 C 206.828125 364.875 206.789062 374.355469 207.324219 383.800781 C 207.941406 394.617188 210.113281 405.195312 214.191406 415.296875 C 218.011719 424.753906 223.378906 433.1875 231.125 439.941406 C 236.351562 444.496094 242.230469 447.984375 248.730469 450.441406 C 258.394531 454.089844 268.429688 455.359375 278.683594 455.234375 C 288.039062 455.121094 297.28125 454.160156 306.152344 450.957031 C 317.550781 446.835938 327.035156 440.140625 333.832031 429.960938 C 336.765625 425.566406 339.039062 420.828125 340.792969 415.816406 C 342.796875 410.09375 343.777344 404.171875 344.804688 398.230469 C 346.203125 390.160156 350.777344 384.378906 358.375 381.207031 C 368.242188 377.082031 379.382812 380.496094 385.40625 389.289062 C 388.847656 394.3125 389.875 399.847656 388.855469 405.730469 C 387.902344 411.226562 386.957031 416.757812 385.460938 422.125 C 381.964844 434.640625 376.6875 446.363281 368.746094 456.761719 C 363.371094 463.792969 357.0625 469.855469 349.789062 474.925781 C 340.035156 481.722656 329.289062 486.296875 317.84375 489.320312 C 302.605469 493.34375 287.0625 494.574219 271.378906 493.957031 C 265.011719 493.707031 258.632812 493.039062 252.332031 492.089844 C 246.9375 491.277344 241.550781 490.117188 236.335938 488.535156 C 224.46875 484.933594 213.539062 479.398438 203.761719 471.675781 C 196.4375 465.894531 189.980469 459.289062 184.574219 451.6875 C 180.839844 446.441406 177.710938 440.835938 175 434.980469 C 170.109375 424.425781 167.054688 413.316406 165.011719 401.914062 C 163.09375 391.191406 162.210938 380.355469 162.175781 369.46875 C 162.109375 351.128906 162.148438 332.789062 162.164062 314.449219 C 162.175781 304.339844 161.984375 294.222656 162.335938 284.125 C 162.589844 276.839844 163.367188 269.554688 164.320312 262.320312 C 165.074219 256.558594 166.445312 250.878906 167.546875 245.160156 C 167.648438 245.179688 167.75 245.199219 167.851562 245.21875 "
           id="path62" />
      </g>
    </g>
    <g
       clip-path="url(#clip8)"
       clip-rule="nonzero"
       id="g72">
      <g
         clip-path="url(#clip9)"
         clip-rule="nonzero"
         id="g70">
        <path
           style=" stroke:none;fill-rule:nonzero;fill:rgb(100%,100%,100%);fill-opacity:1;"
           d="M 453.292969 171.304688 C 460.257812 173.183594 464.824219 177.160156 467.851562 182.964844 C 469.507812 186.140625 470.132812 189.609375 470.144531 193.164062 C 470.167969 203.628906 470.144531 214.097656 470.144531 224.5625 C 470.140625 233.828125 470.140625 243.097656 470.140625 252.363281 C 470.136719 261.632812 470.132812 270.898438 470.136719 280.164062 C 470.144531 290.070312 470.164062 299.976562 470.164062 309.886719 C 470.164062 315.4375 470.117188 320.988281 470.113281 326.542969 C 470.113281 333.929688 470.140625 341.320312 470.144531 348.710938 C 470.152344 358.019531 470.148438 367.328125 470.148438 376.632812 C 470.148438 385.902344 470.148438 395.167969 470.144531 404.433594 C 470.144531 413.703125 470.144531 422.96875 470.144531 432.238281 C 470.140625 441.503906 470.152344 450.773438 470.132812 460.039062 C 470.125 462.632812 470.144531 465.234375 469.929688 467.816406 C 469.664062 471.035156 468.617188 474.042969 466.914062 476.816406 C 464.96875 479.980469 462.398438 482.53125 459.210938 484.382812 C 455.058594 486.800781 450.53125 487.730469 445.734375 487.320312 C 439.042969 486.746094 433.734375 483.632812 429.796875 478.304688 C 426.917969 474.421875 425.507812 469.953125 425.523438 465.066406 C 425.542969 455.878906 425.535156 446.691406 425.535156 437.503906 C 425.539062 428.195312 425.535156 418.890625 425.535156 409.582031 C 425.535156 400.316406 425.535156 391.046875 425.539062 381.78125 C 425.539062 378.105469 425.648438 374.425781 425.523438 370.757812 C 425.414062 367.453125 424.59375 364.296875 422.972656 361.359375 C 421.746094 359.128906 420.277344 357.097656 418.425781 355.375 C 416.664062 353.734375 414.65625 352.433594 412.445312 351.441406 C 408.679688 349.753906 404.714844 349.308594 400.636719 349.367188 C 396.28125 349.425781 391.929688 349.390625 387.574219 349.394531 C 379.863281 349.402344 372.15625 349.40625 364.445312 349.414062 C 354.578125 349.421875 344.710938 349.433594 334.84375 349.4375 C 330.050781 349.4375 325.257812 349.390625 320.464844 349.433594 C 315.808594 349.476562 311.621094 350.945312 307.835938 353.664062 C 304.324219 356.1875 301.789062 359.480469 300.21875 363.457031 C 299.339844 365.671875 298.667969 368.011719 298.652344 370.441406 C 298.609375 376.59375 298.613281 382.746094 298.605469 388.894531 C 298.597656 392.847656 298.59375 396.804688 298.59375 400.761719 C 298.59375 405.234375 298.59375 409.707031 298.609375 414.179688 C 298.617188 416.84375 298.261719 419.457031 297.34375 421.949219 C 295.96875 425.691406 293.730469 428.863281 290.644531 431.425781 C 287.0625 434.40625 282.921875 436.078125 278.3125 436.472656 C 274.832031 436.773438 271.429688 436.40625 268.101562 435.078125 C 263.90625 433.40625 260.546875 430.746094 257.984375 427.117188 C 255.441406 423.515625 254.035156 419.445312 254.023438 415 C 253.996094 404.414062 254.023438 393.828125 254.027344 383.242188 C 254.027344 375.25 254.019531 367.261719 254.023438 359.269531 C 254.023438 348.722656 254.027344 338.179688 254.03125 327.632812 C 254.03125 319.605469 254.027344 311.574219 254.027344 303.546875 C 254.027344 295.515625 254.023438 287.488281 254.023438 279.460938 C 254.023438 270.152344 254.03125 260.84375 254.027344 251.539062 C 254.023438 248.621094 253.886719 245.703125 254.011719 242.789062 C 254.316406 235.574219 257.371094 229.761719 263.226562 225.472656 C 268.195312 221.832031 273.785156 220.753906 279.804688 221.484375 C 284.859375 222.097656 289.023438 224.460938 292.484375 228.101562 C 296.777344 232.617188 298.632812 238.0625 298.605469 244.246094 C 298.570312 253.589844 298.601562 262.9375 298.601562 272.285156 C 298.601562 276.878906 298.539062 281.472656 298.613281 286.066406 C 298.699219 291.167969 300.5625 295.625 303.738281 299.589844 C 305.996094 302.40625 308.851562 304.414062 312.097656 305.855469 C 314.890625 307.09375 317.871094 307.671875 320.929688 307.699219 C 325.5625 307.742188 330.195312 307.71875 334.828125 307.710938 C 342.222656 307.707031 349.609375 307.683594 357 307.679688 C 366.308594 307.675781 375.617188 307.683594 384.921875 307.675781 C 391.476562 307.671875 398.023438 307.710938 404.574219 307.609375 C 407.472656 307.566406 410.21875 306.742188 412.859375 305.484375 C 418.015625 303.023438 421.570312 299.082031 423.8125 293.929688 C 425.199219 290.746094 425.605469 287.351562 425.566406 283.882812 C 425.519531 279.128906 425.566406 274.375 425.566406 269.621094 C 425.558594 262.230469 425.539062 254.839844 425.53125 247.453125 C 425.523438 238.105469 425.527344 228.757812 425.523438 219.410156 C 425.523438 210.542969 425.492188 201.675781 425.554688 192.804688 C 425.566406 190.945312 425.695312 189.023438 426.175781 187.238281 C 426.96875 184.257812 428.320312 181.5 430.292969 179.066406 C 432.152344 176.769531 434.328125 174.863281 436.898438 173.425781 C 441.003906 171.136719 445.4375 170.355469 450.085938 170.761719 C 451.351562 170.875 452.597656 171.183594 453.292969 171.304688 "
           id="path68" />
      </g>
    </g>
  </g>
</svg>
