<svg xmlns="http://www.w3.org/2000/svg" viewBox="0 0 1782 289"><defs><style>.cls-1{fill:#e91e63;}.cls-2,.cls-3{fill:#fff;}.cls-2{fill-opacity:0.2;}.cls-4{opacity:0.2;}</style></defs><title>hack.athon.uk-logo</title><g id="bg"><polygon class="cls-1" points="57.94 0 0 289 1724.06 289 1782 0 57.94 0"/><polygon class="cls-2" points="67.94 10 1779.99 10 1782 0 57.94 0 0 289 12.01 289 67.94 10"/></g><g id="hack.athon.uk"><path class="cls-3" d="M118.32,52.64h35.26l-9.76,47-5.65,20.79h1c11.4-10.1,24.9-18.2,40.27-18.2,21.15,0,30.25,11.52,30.25,32.88a76.22,76.22,0,0,1-2.07,18.2l-16,79.93H156.42l15.13-75.5c1.13-5.18,2.07-8.79,2.07-12.25,0-8.76-4.58-13.19-13-13.19-8,0-15.77,5.28-26.87,16.71l-16.43,84.23H82Z"/><path class="cls-3" d="M227.15,189.47c0-48.72,33-87.21,68.31-87.21,11.56,0,22.81,6.55,27.81,16.8h.61l5.49-13.71h28.28l-25.6,127.92h-28.7l.54-16.72h-.61c-11.61,12.14-26.75,19.81-40,19.81C240.74,236.36,227.15,219.62,227.15,189.47Zm78.8-.83,9.16-45.34c-4.27-8.52-11.19-12.25-17.19-12.25-17.77,0-34.23,23.38-34.23,53.89,0,15.68,5.82,22.62,14.94,22.62C287.15,207.56,297.71,203.2,306,188.64Z"/><path class="cls-3" d="M369,183.64c0-44.22,33.09-81.38,75.26-81.38a44,44,0,0,1,34.34,15.8L459,138.94c-5.19-5.46-9.77-8.31-17-8.31-20.37,0-36.93,23.75-36.93,52.31,0,15.62,7.19,25.05,21.65,25.05,8.64,0,14.89-4.07,20.35-8.31L461.8,221.5c-9.61,7.12-22.84,14.86-42.83,14.86C390.55,236.36,369,217.13,369,183.64Z"/><path class="cls-3" d="M515.62,52.64h35.26l-21,104.66h.94l48.37-52h39L566,161.23l30.34,72H560.94l-19.35-51.59-20.71,20.8-6.28,30.79H479.34Z"/><path class="cls-3" d="M618.13,217.15c0-12.47,10.25-25.88,25.27-25.88,11,0,18.18,8.29,18.18,19.3,0,12.9-10.17,25.79-25.19,25.79C625.38,236.36,618.13,228.5,618.13,217.15Z"/><path class="cls-3" d="M692.51,189.47c0-48.72,33-87.21,68.31-87.21,11.55,0,22.81,6.55,27.81,16.8h.61l5.49-13.71H823l-25.6,127.92H768.7l.55-16.72h-.61c-11.61,12.14-26.75,19.81-40,19.81C706.1,236.36,692.51,219.62,692.51,189.47Zm78.8-.83,9.16-45.34c-4.27-8.52-11.19-12.25-17.19-12.25-17.77,0-34.23,23.38-34.23,53.89,0,15.68,5.82,22.62,14.94,22.62C752.51,207.56,763.06,203.2,771.31,188.64Z"/><path class="cls-3" d="M842.89,202.53a92,92,0,0,1,1.89-16.1l11.15-53.56h-17l5.28-26.06L863,105.35,873.8,71.9h29.56L897,105.35h28.93l-5.37,27.52H890.77l-11.16,54.92a49.16,49.16,0,0,0-.61,8.52c0,8.46,4.13,12.53,13.38,12.53a23.55,23.55,0,0,0,10.37-2.94l6.4,24.79a82.65,82.65,0,0,1-30,5.67C853.33,236.36,842.89,222.13,842.89,202.53Z"/><path class="cls-3" d="M961.38,52.64h35.26l-9.76,47-5.65,20.79h1c11.41-10.1,24.9-18.2,40.28-18.2,21.14,0,30.25,11.52,30.25,32.88a76.22,76.22,0,0,1-2.07,18.2l-16,79.93H999.48l15.13-75.5c1.12-5.18,2.07-8.79,2.07-12.25,0-8.76-4.58-13.19-13-13.19-7.95,0-15.77,5.28-26.87,16.71l-16.44,84.23H925.1Z"/><path class="cls-3" d="M1069.79,183.64c0-49.29,36.46-81.38,71.68-81.38,29.85,0,49.65,20.93,49.65,52.72,0,49.29-36.46,81.38-71.67,81.38C1089.6,236.36,1069.79,215.43,1069.79,183.64Zm85.65-28c0-15.62-6-25.05-17.89-25.05-17.22,0-32.08,22.47-32.08,52.31,0,15.62,6,25.05,17.89,25.05C1140.58,208,1155.44,185.52,1155.44,155.68Z"/><path class="cls-3" d="M1228.46,105.35h28.71l-.54,17.14h1c12.49-10.86,26.84-20.23,43.07-20.23,21.14,0,30.24,11.52,30.24,32.88a89.4,89.4,0,0,1-2.06,18.2l-16,79.93h-35.26l15.14-75.5c1.12-5.18,2.06-8.79,2.06-12.25,0-8.76-4.58-13.19-13-13.19-7.94,0-15.77,5.28-26.86,16.71l-16.44,84.23h-35.26Z"/><path class="cls-3" d="M1348,217.15c0-12.47,10.26-25.88,25.28-25.88,11,0,18.17,8.29,18.17,19.3,0,12.9-10.16,25.79-25.18,25.79C1355.25,236.36,1348,228.5,1348,217.15Z"/><path class="cls-3" d="M1528.13,233.27h-28.7L1500,216h-1c-11.64,10.86-26.42,20.32-41.8,20.32-21.14,0-30.24-11.53-30.24-32.88a88.74,88.74,0,0,1,2.07-18.2l16-79.93h35.26l-15.13,75.5C1464,186,1463,189.64,1463,193.1c0,8.76,4.58,13.19,13,13.19,7.52,0,15.34-5.28,25.59-16.71l16.44-84.23h35.26Z"/><path class="cls-3" d="M1597.41,52.64h35.26l-21,104.66h.94l48.36-52h39l-52.21,55.88,30.33,72h-35.35l-19.34-51.59-20.71,20.8-6.28,30.79h-35.26Z"/><g class="cls-4"><path class="cls-3" d="M128.32,62.64h35.26l-9.76,47-5.65,20.79h1c11.4-10.1,24.9-18.2,40.27-18.2,21.15,0,30.25,11.52,30.25,32.88a76.22,76.22,0,0,1-2.07,18.2l-16,79.93H166.42l15.13-75.5c1.13-5.18,2.07-8.79,2.07-12.25,0-8.76-4.58-13.19-13-13.19-8,0-15.77,5.28-26.87,16.71l-16.43,84.23H92Z"/><path class="cls-3" d="M237.15,199.47c0-48.72,33-87.21,68.31-87.21,11.56,0,22.81,6.55,27.81,16.8h.61l5.49-13.71h28.28l-25.6,127.92h-28.7l.54-16.72h-.61c-11.61,12.14-26.75,19.81-40,19.81C250.74,246.36,237.15,229.62,237.15,199.47Zm78.8-.83,9.16-45.34c-4.27-8.52-11.19-12.25-17.19-12.25-17.77,0-34.23,23.38-34.23,53.89,0,15.68,5.82,22.62,14.94,22.62C297.15,217.56,307.71,213.2,316,198.64Z"/><path class="cls-3" d="M379,193.64c0-44.22,33.09-81.38,75.26-81.38a44,44,0,0,1,34.34,15.8L469,148.94c-5.19-5.46-9.77-8.31-17-8.31-20.37,0-36.93,23.75-36.93,52.31,0,15.62,7.19,25.05,21.65,25.05,8.64,0,14.89-4.07,20.35-8.31L471.8,231.5c-9.61,7.12-22.84,14.86-42.83,14.86C400.55,246.36,379,227.13,379,193.64Z"/><path class="cls-3" d="M525.62,62.64h35.26l-21,104.66h.94l48.37-52h39L576,171.23l30.34,72H570.94l-19.35-51.59-20.71,20.8-6.28,30.79H489.34Z"/><path class="cls-3" d="M628.13,227.15c0-12.47,10.25-25.88,25.27-25.88,11,0,18.18,8.29,18.18,19.3,0,12.9-10.17,25.79-25.19,25.79C635.38,246.36,628.13,238.5,628.13,227.15Z"/><path class="cls-3" d="M702.51,199.47c0-48.72,33-87.21,68.31-87.21,11.55,0,22.81,6.55,27.81,16.8h.61l5.49-13.71H833l-25.6,127.92H778.7l.55-16.72h-.61c-11.61,12.14-26.75,19.81-40,19.81C716.1,246.36,702.51,229.62,702.51,199.47Zm78.8-.83,9.16-45.34c-4.27-8.52-11.19-12.25-17.19-12.25-17.77,0-34.23,23.38-34.23,53.89,0,15.68,5.82,22.62,14.94,22.62C762.51,217.56,773.06,213.2,781.31,198.64Z"/><path class="cls-3" d="M852.89,212.53a92,92,0,0,1,1.89-16.1l11.15-53.56h-17l5.28-26.06L873,115.35,883.8,81.9h29.56L907,115.35h28.93l-5.37,27.52H900.77l-11.16,54.92a49.16,49.16,0,0,0-.61,8.52c0,8.46,4.13,12.53,13.38,12.53a23.55,23.55,0,0,0,10.37-2.94l6.4,24.79a82.65,82.65,0,0,1-30,5.67C863.33,246.36,852.89,232.13,852.89,212.53Z"/><path class="cls-3" d="M971.38,62.64h35.26l-9.76,47-5.65,20.79h1c11.41-10.1,24.9-18.2,40.28-18.2,21.14,0,30.25,11.52,30.25,32.88a76.22,76.22,0,0,1-2.07,18.2l-16,79.93h-35.26l15.13-75.5c1.12-5.18,2.07-8.79,2.07-12.25,0-8.76-4.58-13.19-13-13.19-7.95,0-15.77,5.28-26.87,16.71l-16.44,84.23H935.1Z"/><path class="cls-3" d="M1079.79,193.64c0-49.29,36.46-81.38,71.68-81.38,29.85,0,49.65,20.93,49.65,52.72,0,49.29-36.46,81.38-71.67,81.38C1099.6,246.36,1079.79,225.43,1079.79,193.64Zm85.65-28c0-15.62-6-25.05-17.89-25.05-17.22,0-32.08,22.47-32.08,52.31,0,15.62,6,25.05,17.89,25.05C1150.58,218,1165.44,195.52,1165.44,165.68Z"/><path class="cls-3" d="M1238.46,115.35h28.71l-.54,17.14h1c12.49-10.86,26.84-20.23,43.07-20.23,21.14,0,30.24,11.52,30.24,32.88a89.4,89.4,0,0,1-2.06,18.2l-16,79.93h-35.26l15.14-75.5c1.12-5.18,2.06-8.79,2.06-12.25,0-8.76-4.58-13.19-13-13.19-7.94,0-15.77,5.28-26.86,16.71l-16.44,84.23h-35.26Z"/><path class="cls-3" d="M1358,227.15c0-12.47,10.26-25.88,25.28-25.88,11,0,18.17,8.29,18.17,19.3,0,12.9-10.16,25.79-25.18,25.79C1365.25,246.36,1358,238.5,1358,227.15Z"/><path class="cls-3" d="M1538.13,243.27h-28.7L1510,226h-1c-11.64,10.86-26.42,20.32-41.8,20.32-21.14,0-30.24-11.53-30.24-32.88a88.74,88.74,0,0,1,2.07-18.2l16-79.93h35.26l-15.13,75.5C1474,196,1473,199.64,1473,203.1c0,8.76,4.58,13.19,13,13.19,7.52,0,15.34-5.28,25.59-16.71l16.44-84.23h35.26Z"/><path class="cls-3" d="M1607.41,62.64h35.26l-21,104.66h.94l48.36-52h39l-52.21,55.88,30.33,72h-35.35l-19.34-51.59-20.71,20.8-6.28,30.79h-35.26Z"/></g></g></svg>