<svg xmlns="http://www.w3.org/2000/svg" viewBox="0 0 1600 1600">
  <defs/>
  <path fill="#e91e63" d="M800 2.68L109.5 401.34v797.32L800 1597.32l690.5-398.66V401.34L800 2.68z" data-name="bg hex"/>
  <path fill="#fff" d="M1490.5 405.82v-4.48l-153.74-88.76-753.17-33.91 233.69-266L800 2.68 614.36 109.86 470.69 274l-176.44 20.67L109.5 401.34v4.19l306.93-38.3L109.5 971.59v193.63l335.2-662 2.86.22v.9c2 228.84 3.93 457.77 6 695.76l-343.76-16h-.29v14.64l135.26 78.1 73.6 4.12 152.63 8.47L534.8 1391l52.47 83.55 162.61 93.88-77.34-122.72-104.17-165.3 550.72-79.41 1.78 2.88-330.42 386.66-.72.85 10.27 5.93 195.74-113c83.83-97.72 167.84-195.62 253.24-295.14l171.28 50 70.24-40.55V1167l-198.12-54.15c67.43-155.72 132.91-306.94 198.12-457.5v-220l-5.5 12.76-210.6 487.45-54 125L1107.31 935 598.13 369.84l2.51-4.58zm-344 702.67L539.1 1197v-5.25c-1.55-255.67-3.06-505.1-4.57-754.5l5.46-1.48z" opacity=".2"/>
  <path fill="#fff" d="M496.83 484.71c15.94-16.42 27.18-24 38.59-24 12.11 0 18.69 6.36 18.69 19 0 5-1.35 10.15-3 17.6l-21.7 108.4h50.65L603 490.9a109.66 109.66 0 003-26.14c0-30.67-13.07-47.23-43.44-47.23-22.09 0-41.48 11.63-57.86 26.14h-1.5l8.11-29.85 14-67.56h-50.62L422.57 605.7h50.65zm186.04 125.46c19.08 0 40.82-11 57.51-28.45h.87l-.78 24h41.24L818.49 422h-40.63L770 441.67h-.87c-7.19-14.73-23.35-24.14-40-24.14-50.71 0-98.12 55.29-98.12 125.27-.01 43.32 19.54 67.37 51.86 67.37zm49.82-151.27c8.62 0 18.55 5.35 24.69 17.59l-13.16 65.13c-11.84 20.91-27 27.18-39.23 27.18-13.11 0-21.47-10-21.47-32.49 0-43.83 23.65-77.41 49.17-77.41zm185 110.51c-20.78 0-31.1-13.55-31.1-36 0-41 23.79-75.15 53.06-75.15 10.32 0 16.9 4.1 24.35 11.94l28.16-30c-9.41-11.5-26.28-22.7-49.33-22.7-60.57 0-108.11 53.38-108.11 116.9 0 48.1 31 75.73 71.85 75.72 28.72 0 47.72-11.11 61.53-21.35l-21.18-31.34c-7.84 6.14-16.81 11.98-29.23 11.98zm275.02-147.43h-56.05l-69.48 74.62h-1.35l30.23-150.34h-50.65L993.3 605.72h50.65l9.02-44.22 29.75-29.88 27.79 74.1h50.78l-43.57-103.48 74.99-80.26zM354.56 857.29c-21.58 0-36.31 19.27-36.31 37.18 0 16.3 10.42 27.59 26.24 27.59 21.58 0 36.18-18.53 36.18-37 0-15.87-10.29-27.77-26.11-27.77zm213.19-103.73h-.87c-7.19-14.73-23.35-24.14-40-24.14-50.71 0-98.12 55.29-98.12 125.27 0 43.31 19.52 67.37 51.85 67.36 19.08 0 40.82-11 57.51-28.45h.88l-.78 24h41.28l36.77-183.74h-40.63zM542 853.51c-11.85 20.91-27 27.18-39.23 27.18-13.11 0-21.47-10-21.47-32.49 0-43.83 23.65-77.41 49.17-77.41 8.62 0 18.55 5.35 24.69 17.59zm171.6-80.12h42.78l7.72-39.53h-41.56l9.15-48.06h-42.46l-15.51 48.06-27.06 2.14-7.58 37.44h24.49l-16 76.93c-1.35 7.76-2.7 15.25-2.7 23.14 0 28.16 15 48.6 52 48.59a118.88 118.88 0 0043.13-8.2l-9.2-35.61c-4.71 2.35-9.67 4.22-14.9 4.22-13.28 0-19.21-5.84-19.21-18a71.34 71.34 0 01.87-12.24zm189.3-43.98c-22.09 0-41.48 11.63-57.86 26.14h-1.48l8.11-29.85 14-67.56h-50.62l-52.12 259.44h50.65l23.61-121c15.94-16.42 27.18-24 38.59-24 12.11 0 18.69 6.36 18.69 18.95 0 5-1.35 10.15-3 17.6l-21.7 108.46h50.65l23-114.81a109.66 109.66 0 003-26.14c-.08-30.64-13.15-47.23-43.52-47.23zm170.84.01c-50.59 0-103 46.09-103 116.9 0 45.67 28.46 75.74 71.34 75.73 50.58 0 103-46.09 103-116.9-.01-45.66-28.46-75.73-71.34-75.73zm-26 151.88c-17.08 0-25.7-13.55-25.7-36 0-42.87 21.34-75.15 46.08-75.15 17.08 0 25.7 13.55 25.7 36-.01 42.85-21.35 75.15-46.09 75.15zm254.79-151.87c-23.31 0-43.92 13.46-61.87 29.06h-1.48l.78-24.62h-41.24l-36.16 183.73h50.65l23.61-121c15.94-16.42 27.18-24 38.59-24 12.11 0 18.69 6.36 18.69 18.95 0 5-1.35 10.15-3 17.6l-21.7 108.46h50.65l23-114.81a128.3 128.3 0 003-26.14c-.05-30.66-13.15-47.23-43.52-47.23zm-947.97 439.74c-21.58 0-36.31 19.27-36.31 37.18 0 16.3 10.42 27.59 26.24 27.59 21.58 0 36.18-18.53 36.18-37 0-15.87-10.29-27.77-26.11-27.77zm184.35-2.41c-14.72 16.42-26 24-36.76 24-12.11 0-18.69-6.36-18.69-19 0-5 1.35-10.15 3-17.6l21.74-108.45h-50.69l-23 114.81a128.3 128.3 0 00-3 26.14c0 30.67 13.07 47.23 43.44 47.23 22.09 0 43.31-13.59 60-29.19h1.48l-.78 24.75H577l36.16-183.73h-50.64zm228.88-121.01l-69.48 74.62h-1.35l30.23-150.34h-50.65l-52.1 259.46h50.65l9.02-44.22 29.75-29.88 27.79 74.1h50.78l-43.57-103.48 74.99-80.26h-56.06z" class="cls-3"/>
</svg>