<?xml version="1.0" encoding="utf-8"?>
<!-- Generator: Adobe Illustrator 24.0.1, SVG Export Plug-In . SVG Version: 6.00 Build 0)  -->
<svg version="1.1" xmlns="http://www.w3.org/2000/svg" xmlns:xlink="http://www.w3.org/1999/xlink" x="0px" y="0px"
	 viewBox="0 0 1600 1600" style="enable-background:new 0 0 1600 1600;" xml:space="preserve">
<style type="text/css">
	.st0{fill:#E91E63;}
	.st1{display:none;}
	.st2{display:inline;opacity:0.14;fill:#FFFFFF;}
	.st3{display:inline;opacity:0.2;fill:#FFFFFF;stroke:#FFFFFF;stroke-width:12;stroke-miterlimit:10;}
	.st4{opacity:0.2;fill:#FFFFFF;stroke:#FFFFFF;stroke-width:12;stroke-miterlimit:10;}
	.st5{fill:none;}
	.st6{fill:#FFFFFF;}
</style>
<g id="bg_hex">
	<polygon class="st0" points="800,2.68 109.5,401.34 109.5,1198.66 800,1597.32 1490.5,1198.66 1490.5,401.34 	"/>
</g>
<g id="wibbly_hheu" class="st1">
	<path class="st2" d="M1360.48,485.81c-1.91,37.67-4.37,75.33-5.47,113.03c-0.51,17.53,2.02,35.13,2.38,52.71
		c0.19,9.03-2.68,18.23-1.79,27.12c1.08,10.75,4.67,21.26,7.2,31.86c0.88,3.69,2.87,7.41,2.65,11.01
		c-1.54,24.31-8.08,49.38-4.01,72.63c3.49,19.92,0.37,38.41,0.55,57.5c0.06,6.62-2.56,13.75-0.86,19.78
		c7.55,26.69-3,53.67,0.97,79.4c3.5,22.64,0.57,44.09,0.57,66.1c0,15.36,2.1,30.75,3.79,46.07c0.74,6.68,3.12,13.17,4.17,19.84
		c2.53,16.21-8.65,25.17-19.06,34.16c-6.04,5.21-12.68,9.79-19.37,14.16c-6.24,4.09-12.95,7.45-19.38,11.28
		c-9.28,5.53-18.27,11.56-27.77,16.67c-10.17,5.47-20.96,9.8-31.14,15.25c-6.84,3.66-12.88,8.79-19.64,12.62
		c-11.32,6.41-23.02,12.14-34.38,18.48c-8.56,4.77-16.75,10.19-25.26,15.05c-5.96,3.4-12.39,6-18.26,9.56
		c-6.3,3.82-12.01,8.62-18.29,12.47c-6.93,4.24-14.39,7.61-21.32,11.83c-16.41,10-32.51,20.5-48.99,30.38
		c-8.46,5.07-17.41,9.33-26.22,13.8c-12.49,6.33-25.32,12.06-37.49,18.93c-6.52,3.68-11.59,9.89-18.03,13.76
		c-7.09,4.26-15.3,6.63-22.47,10.78c-8.02,4.64-15.11,10.89-23.16,15.44c-10.09,5.7-21,9.95-31.08,15.66
		c-7.39,4.18-13.66,10.33-21.06,14.48c-10.97,6.16-22.75,10.88-33.7,17.07c-6.58,3.72-11.84,9.76-18.39,13.55
		c-11.24,6.51-24.18,10.59-34.32,18.41c-14.83,11.42-29.84,3.36-44,1.8c-8.11-0.89-15.12-11.68-22.65-17.98
		c-1.8-1.5-3.51-3.27-5.57-4.26c-13.35-6.4-26.87-12.47-40.13-19.04c-2.1-1.04-2.76-4.82-4.84-6.06c-5.89-3.5-12.29-6.15-18.29-9.5
		c-6.71-3.74-13.23-7.84-19.78-11.87c-1.8-1.11-3.29-3.37-5.15-3.65c-10.47-1.55-17.87-6.44-23.51-15.86
		c-2.31-3.87-9.3-4.95-14.17-7.28c-8.06-3.87-16.27-7.47-24.14-11.69c-3.69-1.97-6.55-5.44-10.14-7.64
		c-9.79-6-19.95-11.42-29.64-17.58c-10.39-6.6-20.28-13.96-30.63-20.62c-6.58-4.23-13.59-7.8-20.43-11.64
		c-9.04-5.08-18.17-9.99-27.11-15.24c-15.15-8.9-30.35-17.72-45.19-27.11c-14.69-9.29-28.97-19.23-43.43-28.89
		c-1.62-1.08-3.09-2.48-4.83-3.29c-13.18-6.06-26.93-11.09-39.46-18.27c-10.76-6.17-19.64-15.56-30.26-22.05
		c-7.99-4.88-18.1-6.33-25.99-11.32c-7.76-4.9-13.86-12.39-20.79-18.65c-1.71-1.55-3.61-3.39-5.72-3.92
		c-9.39-2.36-21.19-17.75-20.44-27.73c1.08-14.46,3.38-28.88,3.53-43.33c0.12-11.84-3.07-23.71-3.08-35.56
		c-0.02-15.21,2.13-30.42,2.39-45.65c0.09-5.08-4.02-10.21-4.03-15.32c-0.03-12.28,2.01-24.57,1.76-36.83
		c-0.23-11.23-3.63-22.45-3.42-33.63c0.4-21.12,3.01-42.2,3.5-63.32c0.31-13.22-2.34-26.49-2.29-39.73
		c0.05-14.73,2.15-29.44,2.31-44.18c0.07-6.08-3.96-12.23-3.77-18.28c0.58-17.68,2.82-35.31,3.41-53c0.22-6.72-2.49-13.49-3.44-20.3
		c-0.5-3.55-0.29-7.25-0.06-10.85c1.19-18.66,6.1-37.97,2.86-55.81c-4.14-22.75,0.81-45.05-2.09-66.76
		c-1.45-10.81,2.53-18.39,4.45-26.81c1.22-5.33,10.07-8.97,15.58-13.25c7-5.43,13.65-11.49,21.24-15.93
		c10.5-6.16,21.93-10.7,32.57-16.64c7.3-4.08,13.42-10.52,20.97-13.86c19.74-8.73,33.8-27.39,56.5-31.2
		c5.7-0.96,10.36-7.3,15.81-10.65c16.69-10.25,33.3-20.66,50.4-30.17c10.31-5.74,21.76-9.42,32.15-15.02
		c6.38-3.44,11.4-9.34,17.65-13.11c10.55-6.36,22.19-11.06,32.23-18.09c7.17-5.01,20.17-1.65,21.8-14.79
		c0.13-1.03,1.94-2.06,3.16-2.72c14.01-7.62,27.98-15.31,42.11-22.7c10.41-5.44,21.24-10.08,31.5-15.78
		c6.82-3.79,12.66-9.34,19.47-13.15c11.2-6.26,23.01-11.43,34.19-17.73c4.81-2.71,8.2-7.99,13.07-10.5
		c10.04-5.18,20.93-8.72,30.91-14c6.7-3.55,12.25-9.2,18.66-13.39c6.2-4.06,12.86-7.4,19.25-11.16
		c8.47-4.98,16.82-10.15,25.32-15.07c12.61-7.31,27.34-14.69,40.18-7.12c11.38,6.71,25.01,8.59,35.03,20.19
		c8.53,9.89,24.62,12.98,36.77,20.1c10.13,5.93,19.41,13.32,29.03,20.12c1.56,1.1,2.75,2.86,4.42,3.68
		c12.88,6.32,28.32,9.91,38.15,19.35c12.67,12.18,29.59,14.73,42.17,24.52c10.43,8.12,24,9.32,33.37,21.16
		c7.81,9.87,24.11,12.82,36.26,19.55c5.78,3.2,10.63,8.07,15.93,12.16c1.43,1.11,2.86,2.27,4.45,3.12
		c15.1,8.13,30.17,16.3,45.37,24.25c6.88,3.59,14.31,6.19,20.95,10.15c9.02,5.38,17.46,11.7,26.24,17.49
		c11.18,7.37,22.09,15.27,33.78,21.73c13.45,7.42,27.98,12.89,41.39,20.37c11.54,6.45,22.15,14.56,33.2,21.89
		c4.18,2.77,8.26,5.79,12.73,8.01c8.01,3.98,16.46,7.09,24.36,11.26c4.25,2.24,9.01,5.19,11.3,9.12c4.57,7.82,7.59,16.55,11.25,24.9
		C1359.14,485.32,1359.81,485.56,1360.48,485.81z M671.01,309.39c-4.75,0.56-10.29-0.25-14.1,1.94c-9.27,5.34-13.84,17.4-27.53,17.1
		c-5.32-0.12-11.1,4.53-16.06,7.92c-7.26,4.96-13.42,11.7-21.02,15.94c-10.07,5.62-21.61,8.63-31.53,14.45
		c-11.65,6.84-21.83,16.15-33.38,23.19c-18.29,11.14-37.11,21.43-55.86,31.81c-15.23,8.43-30.71,16.39-45.97,24.77
		c-2.83,1.55-4.96,4.36-7.73,6.08c-2.21,1.38-4.9,1.98-7.38,2.93c2.63,1.46,5.1,3.53,7.92,4.22c3.27,0.8,6.97,1.03,10.25,0.34
		c6.47-1.35,12.66-4.3,19.16-5.15c14.2-1.87,28.52-2.85,42.79-4.23c0.7-0.07,1.34-0.64,2.05-0.8c6.44-1.41,12.83-3.33,19.36-4.06
		c15-1.66,30.06-2.69,45.08-4.15c1.27-0.12,2.61-1.39,3.58-2.43c10.25-10.92,20.42-21.93,30.65-32.87c2.57-2.75,5.5-5.18,7.87-8.09
		c9.76-11.98,19.1-24.3,29.13-36.04c5.42-6.35,12.11-11.59,17.86-17.68c4.6-4.88,9.03-10.02,12.83-15.53
		c4.36-6.33,7.95-13.19,11.88-19.82c2.08-0.84,4.16-1.67,6.24-2.51c-0.91-0.94-1.82-1.88-2.73-2.82
		C673.25,305.73,672.13,307.56,671.01,309.39z M661.1,608.52l0.16,0.14c-1.66-4.96-2.06-11.03-5.25-14.63
		c-5.96-6.7-14.12-11.42-20.29-17.97c-7.37-7.82-13.16-17.14-20.6-24.89c-2.52-2.63-7.94-2.48-12.04-3.6
		c-0.05,4.27-0.44,8.58,0,12.8c0.23,2.16,2.72,4.1,2.88,6.23c1.28,16.96-1.52,33.53,1.6,51.15c4.15,23.47-2.99,48.35,2.44,72.79
		c1.94,8.71-1.45,18.5-1.74,27.82c-0.3,9.96-0.11,19.97,0.45,29.92c0.29,5.24,2.46,10.38,2.68,15.61
		c0.93,22.27-6.03,43.91,0.2,67.08c5.68,21.13-7.14,44.31,2.61,66.76c2.58,5.93-1.19,14.46-1.47,21.81
		c-0.33,8.77-0.44,17.59,0.1,26.34c0.43,6.88,2.99,13.71,2.83,20.53c-0.34,14.48-2.48,28.94-2.56,43.41
		c-0.04,7.02,4.03,14.03,4.25,21.1c0.31,10.02-0.91,20.13-2.06,30.14c-0.9,7.87,2.89,10.49,9.76,9.73
		c14.28-1.58,28.55-3.31,42.76-5.41c7.81-1.15,15.47-3.33,23.25-4.74c17.57-3.18,35.17-6.25,52.78-9.22
		c11.66-1.97,23.43-3.38,35.04-5.63c14.12-2.75,28-6.95,42.2-9c15.7-2.27,31.67-2.52,47.46-4.22c8.4-0.9,16.77-2.64,24.98-4.67
		c12.68-3.13,25.04-7.95,37.86-10.02c15.18-2.45,30.71-2.82,46.1-3.95c3.63-0.27,7.45,0.73,10.93-0.02
		c13.84-2.98,27.59-6.4,41.36-9.71c1.31-0.31,3.47-0.89,3.57-1.59c0.2-1.39-0.37-3.27-1.3-4.38c-3.77-4.53-7.8-8.83-11.72-13.23
		c-7.29-8.2-14.35-16.62-21.9-24.58c-14.28-15.06-28.94-29.77-43.24-44.81c-7.95-8.36-15.31-17.3-23.32-25.61
		c-7.21-7.49-15.32-14.13-22.35-21.79c-9.84-10.72-18.61-22.42-28.61-32.98c-10.45-11.04-22.24-20.82-32.66-31.9
		c-11.1-11.79-20.93-24.78-32-36.6c-6.42-6.86-14.28-12.34-21.23-18.73c-1.56-1.43-1.89-4.14-2.95-6.18
		c-1.34-2.56-2.37-5.54-4.38-7.43c-9.29-8.75-19.69-16.46-28.17-25.9c-15.32-17.06-29.27-35.33-44.35-52.61
		c-9.18-10.52-18.91-20.67-29.31-29.96C678.38,619.24,669.4,614.26,661.1,608.52z M655.45,499.18c-3.07,1.36-5.32,2.35-7.57,3.34
		c1.34,1.87,2.54,3.87,4.07,5.58c2.7,3.02,5.63,5.82,8.4,8.77c14.34,15.22,28.87,30.25,42.9,45.74
		c10.31,11.38,19.86,23.46,29.95,35.06c7.6,8.74,15.31,17.41,23.35,25.75c14.19,14.72,28.91,28.92,42.91,43.8
		c7.73,8.21,13.88,17.93,21.76,25.96c11.69,11.93,24.75,22.52,36.36,34.53c8.64,8.94,15.47,19.6,23.88,28.79
		c9.01,9.84,19.52,18.33,28.25,28.38c5.9,6.8,8.94,16.11,14.93,22.8c8.08,9.04,17.84,16.56,26.74,24.87
		c10.63,9.93,23.21,18.61,31.11,30.4c8.88,13.25,17.27,25.76,31.44,33.85c5.2,2.96,11.67,7.01,13.43,12.01
		c4.22,12.01,11.56,19.85,22.19,26.29c4.79,2.91,7.36,9.45,11.01,14.29c2.1,2.78,4.21,5.56,6.58,8.1c1.81,1.95,4.01,3.54,6.08,5.25
		c3.64,3,7.27,6.01,11.06,8.81c0.18,0.13,2.24-1.56,2.73-2.7c5.85-13.48,11.93-26.88,17.19-40.59c3.91-10.19,6.35-20.94,10.1-31.2
		c3.13-8.56,7.36-16.71,10.83-25.16c5.73-13.92,11.76-27.74,16.68-41.95c4.57-13.22,7.43-27.02,11.91-40.28
		c1.88-5.57,6.27-10.24,9.03-15.57c5.14-9.93,10.73-19.75,14.65-30.18c4.66-12.41,7.43-25.52,11.67-38.11
		c2.46-7.3,6.06-14.24,9.4-21.22c7.65-15.95,16.26-31.5,22.96-47.84c5.11-12.45,7.84-25.87,11.77-38.81
		c0.47-1.54,1.9-2.78,2.81-4.21c4.04-6.32,9.21-12.21,11.84-19.08c4.82-12.58,8.05-25.76,12.19-38.61c0.62-1.91,3.01-3.21,3.8-5.11
		c1.59-3.85,3.11-7.88,3.5-11.94c0.07-0.72-5.47-2.28-8.54-2.88c-3.11-0.62-6.35-0.55-9.53-0.75c-15.72-1.01-31.43-2.7-47.15-2.79
		c-12.34-0.07-24.75,3.11-37.04,2.59c-27.02-1.14-53.96-4.08-80.98-5.41c-6.58-0.32-13.43,4.36-19.99,3.98
		c-32.15-1.89-64.22-5.29-96.37-6.95c-14.35-0.74-28.92,2.7-43.26,1.89c-44.2-2.5-88.33-6.33-132.52-9.07
		c-5.82-0.36-11.9,4.05-17.76,3.81c-20.89-0.86-41.71-3.3-62.6-4.12C692.79,498.56,673.93,499.16,655.45,499.18z M546.13,1077.42
		c9.13,1.97,12.15-2.94,11.63-11.63c-1.13-19.05,2.53-37.55-1.21-57.44c-5.3-28.18,6.48-57.43-0.09-87.25
		c-5.06-22.99,6.17-47.01-1.13-71.53c-4.89-16.43-3.24-34.94-3.62-52.54c-0.6-28.42-0.54-56.85-0.57-85.28
		c-0.01-7.36,1.35-14.77,0.81-22.07c-0.37-5.02-4.53-9.97-4.24-14.79c1.47-24.78,4.03-49.5,5.58-74.29
		c0.16-2.64-3.79-5.53-5.83-8.31c-2.65,2.46-6,4.5-7.74,7.49c-1.75,3.01-1.45,7.14-2.82,10.47c-4.97,12.05-10.24,23.97-15.43,35.92
		c-1.05,2.42-2.16,4.83-3.47,7.11c-4.54,7.92-9.24,15.75-13.75,23.68c-3.25,5.71-6.35,11.52-9.44,17.32
		c-2.34,4.39-4.91,8.7-6.77,13.3c-4.64,11.48-8.56,23.25-13.46,34.61c-4.18,9.7-9.32,18.98-13.99,28.46
		c-0.85,1.73-1.34,3.64-2.26,5.32c-4.65,8.52-9.48,16.95-14.07,25.51c-3.72,6.94-7.25,13.98-10.75,21.03
		c-5.23,10.53-10.37,21.1-15.53,31.66c-0.73,1.5-1.3,3.08-2.04,4.57c-5.09,10.26-10.39,20.42-15.27,30.78
		c-3.77,8.01-6.77,16.38-10.59,24.35c-2.28,4.75-5.72,8.93-8.24,13.59c-5.12,9.45-10.17,18.95-14.88,28.61
		c-4.29,8.81-8.04,17.88-12.09,26.8c-4.97,10.96-10.07,21.87-14.98,32.86c-0.98,2.2-0.98,4.86-2.03,7.01
		c-4.85,9.91-9.91,19.71-14.89,29.56c-0.99,1.95-1.87,3.98-3.04,5.82c-1.19,1.87-2.68,3.56-4.04,5.33c2.62,0.96,5.18,2.53,7.86,2.78
		c15.41,1.48,30.83,2.76,46.27,3.88c9.31,0.68,18.68,1.5,27.98,1.17c5.86-0.21,11.75-3.9,17.46-3.52
		C458.89,1070.62,502.27,1074.1,546.13,1077.42z M1196.43,460.38c0.43-0.27,2.05-1.08,3.31-2.28c0.25-0.24-0.62-2.3-1.43-2.92
		c-4.16-3.16-8.3-6.41-12.77-9.09c-13.75-8.23-27.53-16.4-41.5-24.22c-16.06-8.99-32.35-17.57-48.54-26.34
		c-11.32-6.13-23.14-11.49-33.81-18.6c-14.48-9.65-27.94-20.89-45.62-24.52c-1.15-0.24-2.44-0.87-3.22-1.73
		c-13.93-15.53-31.24-25.42-50.98-31.8c-6.47-2.09-15.24-4.8-17.79-9.84c-7.13-14.06-22.65-13.13-32.92-21.36
		c-10.02-8.02-22.61-12.8-33.99-19.16c-14.52-8.11-28.97-16.35-43.41-24.6c-2.42-1.38-5.02-2.76-6.9-4.75
		c-5.61-5.95-11.02-11.53-18.62-2.65c-6.26,7.32-12.42,14.71-18.71,22c-7.56,8.77-15.1,17.56-22.88,26.14
		c-4.83,5.32-10.7,9.78-15.01,15.46c-6.47,8.53-11.46,18.19-18.09,26.57c-3.82,4.82-10.59,7.33-14.32,12.2
		c-6.9,9.01-11.87,19.5-18.88,28.4c-7.26,9.22-15.95,17.32-24.08,25.85c-11.8,12.39-23.82,24.57-35.34,37.22
		c-1.81,1.99-2.14,6.02-1.81,8.96c0.14,1.25,3.84,3.16,5.76,2.99c10.39-0.93,20.74-3.53,31.1-3.51
		c38.23,0.04,75.97,10.83,114.76,3.15c13.24-2.62,27.83,1.63,41.82,2.66c27.45,2.02,54.88,4.32,82.36,5.71
		c5.92,0.3,12.11-4.43,18-4.06c31.41,1.96,62.76,4.87,94.15,7.28c7.3,0.56,14.69,1.04,21.96,0.49c6.74-0.51,13.47-3.96,20.03-3.51
		C1111.03,453.36,1152.95,456.93,1196.43,460.38z M295.68,956.36c0.2,0.53,1.25,3.37,2.3,6.2c2.54-1.27,6.29-1.87,7.41-3.91
		c4.84-8.88,8.8-18.24,13.31-27.31c4.85-9.75,9.87-19.42,14.97-29.05c3.08-5.82,7.16-11.21,9.53-17.28
		c4.25-10.89,7.54-22.16,11.27-33.26c0.38-1.13,0.98-2.22,1.67-3.2c4.57-6.55,10.3-12.57,13.52-19.72
		c4.46-9.89,7.03-20.63,10.49-30.98c0.45-1.36,1.3-2.61,2.09-3.83c4.33-6.69,8.73-13.33,13.03-20.04c2.96-4.62,6.23-9.12,8.56-14.05
		c5.84-12.37,11.18-24.97,16.81-37.44c3.32-7.34,7.05-14.51,10.14-21.95c3.97-9.56,7.07-19.49,11.31-28.91
		c4.87-10.83,10.72-21.22,15.89-31.93c3.41-7.05,6.21-14.41,9.63-21.46c2.61-5.37,5.71-10.5,8.69-15.68
		c4.99-8.65,10.12-17.22,15.08-25.88c2.15-3.76,4.01-7.69,6.03-11.53c3.46-6.58,7.12-13.06,10.36-19.74
		c4.35-8.96,8.36-18.07,12.54-27.11c1.66-3.59,3.42-7.14,5.13-10.71c-3.95-1.35-8.06-4.14-11.83-3.73c-6.81,0.74-13.32,4.47-20.12,5
		c-11.76,0.92-22.96-2.36-35.49,2.94c-12.49,5.28-27.93,3.23-41.91,5.46c-15.9,2.53-31.48,7.46-47.43,9.14
		c-20.28,2.14-40.79,2.38-61.21,2.77c-7.83,0.15-13.39,1.39-12.74,10.68c0.89,12.78,2,25.55,2.97,38.32
		c1.97,25.99-7.21,51.43-0.1,78.3c4.29,16.24-1.64,35.08-2.2,52.77c-0.22,6.77,1.79,13.6,2.67,20.42c0.43,3.38,1.05,6.84,0.8,10.2
		c-1.47,20.36-3.32,40.69-4.72,61.05c-0.57,8.27-0.75,16.61-0.32,24.88c0.36,6.84,2.85,13.62,2.73,20.41
		c-0.27,15.24-2.12,30.45-2.21,45.68c-0.04,6.63,3.92,13.29,3.9,19.93C298.2,925.8,296.72,939.78,295.68,956.36z M649.77,1122.62
		c-0.14-0.39-0.28-0.78-0.43-1.17c-3.64,1.39-7.28,2.78-10.92,4.17c1.53,3.75,3.1,7.49,4.55,11.27c0.5,1.3,0.37,2.89,1.04,4.06
		c1.86,3.24,3.61,6.67,6.1,9.39c4.17,4.57,10.23,7.91,13.09,13.1c5.54,10.07,8.34,21.71,14.24,31.52
		c8.32,13.81,18.36,26.59,27.78,39.73c11.36,15.85,23.19,31.38,34.16,47.49c8.94,13.13,17.01,26.85,25.31,40.41
		c4.37,7.14,7.97,14.78,12.81,21.57c1.72,2.42,5.97,3.46,9.27,4.11c1.23,0.24,3.29-2.2,4.54-3.77c4.41-5.53,8.5-11.32,12.96-16.81
		c3.39-4.17,7.65-7.69,10.66-12.09c4.44-6.49,7.35-14.13,12.3-20.15c8.89-10.83,18.95-20.7,28.26-31.2
		c6.46-7.29,12.38-15.05,18.72-22.43c6.66-7.75,13.89-15.04,20.25-23.03c9.66-12.13,18.22-25.16,28.28-36.93
		c10.86-12.71,25.1-23.04,33.79-36.96c7.93-12.68,15.8-24.6,26.84-34.69c5.04-4.6,8.19-11.23,13-16.16
		c7.31-7.49,15.66-13.99,22.81-21.62c1.89-2.02,0.97-6.66,1.33-10.09c-3.7-0.22-7.64-1.36-11.06-0.48
		c-11.13,2.85-21.87,7.55-33.12,9.47c-14.58,2.49-29.5,2.98-44.27,4.4c-0.93,0.09-1.78,0.88-2.73,1.07
		c-6.29,1.23-12.56,2.65-18.9,3.51c-12.51,1.69-25.06,3.04-37.6,4.55c-0.23,0.03-0.43,0.24-0.66,0.31
		c-10.52,3.42-20.83,8.34-31.63,9.9c-17.27,2.51-34.86,2.8-52.31,4c-3.38,0.23-6.84-0.03-10.13,0.61
		c-13.96,2.74-27.85,5.81-41.8,8.59c-2.36,0.47-5.01-0.34-7.3,0.27c-12.2,3.24-24.16,7.75-36.53,9.9
		C678.42,1120.89,664.01,1121.32,649.77,1122.62z M1285.95,645.23c0-1.23,0.23-2.53-0.05-3.69c-0.66-2.71-1.57-5.35-2.38-8.02
		c-1.3,2.35-2.95,4.57-3.83,7.07c-3.62,10.22-6.99,20.53-10.49,30.79c-0.23,0.67-0.81,1.22-1.12,1.88
		c-5.26,11.17-11.06,22.13-15.57,33.59c-4.23,10.75-7.08,22.05-10.59,33.09c-0.21,0.66-1.03,1.1-1.33,1.75
		c-5.1,11.11-10.2,22.22-15.18,33.38c-0.88,1.98-0.84,4.39-1.83,6.29c-4.84,9.27-10.82,18.07-14.62,27.74
		c-4.74,12.08-7.75,24.84-11.51,37.31c-0.49,1.64-0.73,3.41-1.46,4.93c-7.73,16.1-15.82,32.02-23.22,48.27
		c-6.16,13.53-11.73,27.35-17.22,41.18c-7.11,17.92-13.88,35.98-20.8,53.98c-0.35,0.91-0.57,1.89-1.08,2.71
		c-1.21,1.96-2.54,3.84-3.83,5.75c2.65,1.1,5.21,2.59,7.96,3.24c18.41,4.34,36.86,8.49,55.28,12.78c1.14,0.26,2.05,1.38,3.18,1.78
		c13.76,4.9,27.39,10.28,41.38,14.44c13.08,3.89,26.51,6.67,39.88,9.5c5.06,1.07,10.49,1.56,15.53,0.81
		c1.31-0.19,2.9-6.24,2.34-9.23c-0.65-3.49-5.16-6.6-5.1-9.81c0.24-12.52,2.04-25,2.45-37.52c0.38-11.37-0.08-22.78-0.62-34.15
		c-0.2-4.25-3.32-8.86-2.35-12.58c5.13-19.69-3.43-40.3,4.36-59.73c0.45-1.13-0.53-2.82-0.76-4.26c-1.18-7.22-3.33-14.44-3.29-21.66
		c0.08-13.48,5.31-28.31,1.21-40.07c-4.2-12.05-2.93-22.67-2.64-34.07c0.15-6.09,1.09-12.26,0.45-18.26
		c-0.77-7.21-4.24-14.31-4.07-21.39c0.45-18.16,2.68-36.28,3.3-54.44c0.2-5.82-3.33-11.7-3.57-17.61
		C1284.43,662.44,1285.51,653.82,1285.95,645.23z M1088.7,1186.8c0.42,0.44,0.85,0.88,1.27,1.32c6.96-2.43,14.68-3.67,20.72-7.54
		c15.08-9.65,28.75-21.62,44.19-30.57c16.34-9.47,34.12-16.44,51.14-24.77c1.9-0.93,2.86-3.68,4.44-5.41
		c2.03-2.23,3.9-5.01,6.46-6.28c9.17-4.55,18.63-8.5,27.89-12.87c1.08-0.51,2.27-2.21,2.22-3.3c-0.05-1.13-1.34-2.73-2.47-3.19
		c-7.34-2.99-14.62-6.3-22.23-8.43c-15.25-4.26-30.72-7.72-46.04-11.72c-12.62-3.29-25.11-7.11-37.76-10.24
		c-6.83-1.69-14.95-0.63-20.63-3.98c-11.9-7.02-16.99-6.5-24.45,4.95c-3.92,6.02-9.43,10.99-14.02,16.61
		c-6.22,7.63-12.23,15.44-18.35,23.15c-4.55,5.73-8.8,11.74-13.77,17.08c-5.12,5.5-11.62,9.8-16.32,15.6
		c-7.74,9.55-14.04,20.25-21.85,29.73c-4.93,5.98-12.22,10.02-17.18,15.98c-9.15,11-17.48,22.7-25.95,34.25
		c-8.32,11.34-15.84,23.3-24.74,34.15c-8.6,10.49-18.81,19.66-27.62,30.01c-2.09,2.46-1.42,7.27-2.02,11
		c2.19-1.14,4.52-2.07,6.53-3.48c6.14-4.29,11.82-9.34,18.29-13.02c10.95-6.23,22.6-11.23,33.51-17.53
		c6.86-3.96,12.47-10.11,19.4-13.91c9.43-5.18,19.69-8.84,29.4-13.55c8.08-3.92,16.07-8.09,23.75-12.71
		c12.84-7.72,25.48-15.8,38.04-23.96C1083.58,1192.2,1086,1189.28,1088.7,1186.8z M389.93,1122.86c-0.76,0.49-3.67,2.37-6.57,4.25
		c5.44,3.48,10.83,7.03,16.33,10.39c2.76,1.69,5.82,2.88,8.61,4.53c11.62,6.91,23.18,13.93,34.78,20.87
		c6.12,3.66,13,6.44,18.25,11.07c11.01,9.7,21.14,20.4,37.04,21.56c1.14,0.08,2.36,0.71,3.31,1.42c6.06,4.51,11.82,9.45,18.13,13.58
		c9.44,6.19,19.27,11.77,28.87,17.71c4.1,2.54,7.84,5.71,12.09,7.92c7.83,4.08,16.02,7.46,23.85,11.52
		c4.77,2.48,9.23,5.58,13.69,8.6c6.82,4.63,13.48,9.5,20.3,14.14c2.35,1.6,5.03,2.7,7.44,4.21c6.16,3.85,12.15,10.92,18.39,11.11
		c16.73,0.52,21.43,18.95,36,21.61c1.65,0.3,3.12,1.59,4.67,2.42c0.85-1.68,2.85-3.89,2.36-4.96c-2.23-4.88-4.8-9.71-7.91-14.08
		c-12.17-17.13-24.75-33.98-36.85-51.17c-4.16-5.91-7.07-12.69-11.09-18.71c-4.83-7.22-10.59-13.82-15.26-21.12
		c-2.98-4.66-4.13-10.49-7.15-15.12c-7.68-11.8-16.2-23.05-23.91-34.83c-7.16-10.94-13.53-22.53-29.61-20.11
		c-8.83,1.33-17.76,4.37-26.46,3.81C483.85,1130.54,438.55,1126.67,389.93,1122.86z"/>
	<path class="st2" d="M1205.25,837.62c0.01,1.67-0.2,3.4,0.11,5.01c0.23,1.18,1.17,2.23,1.79,3.34c0.89-0.64,1.91-1.16,2.64-1.94
		c2.88-3.08,16.05-1.38,17.03,2.55c0.33,1.34-2.19,3.2-2.84,5.03c-1,2.78-2.07,5.73-2.11,8.63c-0.07,4.71,0.94,9.43,1.01,14.15
		c0.15,10.55,0.38,21.13-0.17,31.66c-0.29,5.53-1.7,11.11-3.39,16.42c-2.44,7.62,0.87,13.27,5.07,18.95
		c3.74,5.05,0.16,19.41-5.56,21.97c-0.54,0.24-2.98-1.76-3.03-2.79c-0.28-5.71-3.25-8.12-8.64-9.33
		c-7.95-1.79-10.96-8.07-8.68-15.87c0.72-2.48,0.49-5.23,0.8-7.84c0.35-2.94,0.66-5.89,1.26-8.78c1.69-8.19,3.68-16.33,5.09-24.57
		c0.17-0.98-2.34-2.72-3.89-3.62c-1.41-0.82-4.64-1.26-4.61-1.42c0.67-3.59,1.67-7.11,2.61-10.64c2.21,0.71,4.53,1.2,6.61,2.2
		c1.39,0.67,2.43,2.05,3.63,3.11c0.75-3.61,1.81-7.2,2.03-10.84c0.06-0.98-2.43-2.19-3.86-3.14c-1.66-1.12-3.56-1.91-5.11-3.15
		c-0.84-0.66-0.99-2.65-1.77-2.85c-9.25-2.43-6.47-9.13-5.86-15.33c0.55-5.67,0.11-11.45,0.9-17.07c0.33-2.32,2.75-4.35,4.23-6.51
		c1.52,2.06,3.44,3.94,4.43,6.23c0.82,1.9,0.53,4.28,0.74,6.45C1205.55,837.6,1205.4,837.61,1205.25,837.62z M1207.75,855.56
		c-0.83-0.74-1.27-1.12-1.71-1.51c-0.39,0.44-0.92,0.84-1.1,1.35c-0.09,0.24,0.51,1.03,0.79,1.03
		C1206.25,856.43,1206.76,856.02,1207.75,855.56z"/>
	<path class="st2" d="M1005.96,423.59c-1.85,0.57-4.31,0.58-5.46,1.81c-5.33,5.74-9.15,3.34-12.24-2.03
		c-4.26-7.39-9.58-12.09-18.95-11.1c-2.52,0.27-7.71-2.67-7.6-3.69c0.38-3.46,2.03-7.17,4.24-9.94c2.32-2.9,5.66-5.2,8.98-6.98
		c1.17-0.63,5.17,1.05,5.17,1.65c-0.05,10.88,9.39,16.07,14.23,23.94c0.75,1.23,3.7,1.43,5.66,1.5c2.13,0.08,4.47-1.2,6.37-0.67
		c2.31,0.65,4.26,2.59,6.36,3.97c-2.07,0.97-4.14,1.95-6.22,2.92C1006.32,424.53,1006.14,424.06,1005.96,423.59z"/>
	<path class="st2" d="M385.12,810.81c2.07-6.4,4.62-13.55,6.62-20.84c0.78-2.83,0.15-6.03,0.54-9c0.16-1.23,1.33-2.33,2.04-3.49
		c0.93,1.01,2.75,2.14,2.64,3.02c-1.32,10.61-2.96,21.18-4.43,31.77c-0.18,1.33,0.19,2.73,0.2,4.09c0.02,2.57-0.05,5.15-0.08,7.72
		c-2.27-1.6-5.2-2.77-6.61-4.93C384.86,817.32,385.43,814.34,385.12,810.81z"/>
	<path class="st2" d="M1142.78,518.02c-1.25,2.88-2.5,5.77-3.75,8.65c-3.61-2.15-7.8-3.73-10.7-6.6
		c-4.09-4.03-7.46-8.88-10.64-13.71c-0.82-1.24-0.42-4.75,0.58-5.37c1.46-0.91,4.74-1,5.86,0.04c4.71,4.38,8.8,9.43,13.36,13.99
		c1.41,1.41,3.57,2.08,5.38,3.09L1142.78,518.02z"/>
	<path class="st2" d="M929.18,389.34c5.91,0.9,10.38,0.75,14.02,2.43c2.61,1.2,4.67,4.61,5.8,7.49c0.45,1.15-2.15,4.97-3.58,5.09
		c-3.74,0.32-7.68-0.41-11.38-1.36c-1.93-0.49-3.69-2.14-5.22-3.58c-1.86-1.75-3.4-3.84-5.08-5.79
		C925.85,391.96,927.97,390.3,929.18,389.34z"/>
	<path class="st2" d="M1183.79,549.29c-0.23,3.43-0.11,5.34-0.57,7.09c-0.29,1.09-2.02,2.87-2.15,2.79
		c-3.73-2.31-8.69-4.06-10.58-7.49c-1.92-3.49-1.06-8.68-0.77-13.09c0.05-0.78,4.01-2.42,4.97-1.8c3.2,2.07,6.24,4.7,8.57,7.7
		C1184.37,545.92,1183.74,548.69,1183.79,549.29z"/>
	<path class="st2" d="M914.47,389.08c-5.1-3.04-9.6-5.71-14.08-8.4c-1.63-0.98-3.16-2.14-4.84-3.04c-1.68-0.9-3.47-1.57-5.22-2.34
		c1.72-1.12,3.79-3.52,5.09-3.15c7.8,2.2,15.49,4.88,23.02,7.89c0.71,0.28,0.57,4.13-0.12,5.97
		C917.82,387.35,915.76,388.12,914.47,389.08z"/>
	<path class="st2" d="M1062.76,467.79c2.27,0.88,3.98,1.01,4.31,1.75c3.74,8.52,9.47,4.96,15.12,2.77c1.24-0.48,2.75-0.25,4.13-0.34
		c-0.78,1.05-1.54,2.11-2.33,3.14c-0.4,0.53-1.14,0.97-1.24,1.53c-2.06,11.46-6.86,7.72-12.67,2.68c-1.71-1.48-5.24-0.65-7.71-1.53
		c-2.25-0.8-4.18-2.48-6.25-3.77C1058.42,471.86,1060.71,469.72,1062.76,467.79z"/>
	<path class="st2" d="M914.99,1191.05c0.19,9.3-3.23,13.23-9.71,13.47c-1.62,0.06-4.61-3.14-4.84-5.09
		c-0.78-6.68,3.3-11.12,9.22-12.83C911.21,1186.17,914.04,1190.22,914.99,1191.05z"/>
	<path class="st2" d="M800.55,1262.8c-4.07-3.95-7.61-6.68-9.91-10.22c-0.43-0.67,5.48-6.92,6.09-6.56
		c4.63,2.72,8.67,6.44,12.89,9.86C807.17,1257.76,804.71,1259.64,800.55,1262.8z"/>
	<path class="st2" d="M1002.57,1179.48c-4.69,3.65-7.58,7.57-9.83,7.24c-2.87-0.43-5.23-4.3-7.81-6.69c2.54-2.74,4.66-6.52,7.8-7.79
		C994.25,1171.62,997.67,1175.72,1002.57,1179.48z"/>
	<path class="st2" d="M1142.87,518.13c2.23-7.18,6.93-8.97,12.78-4.76c2.45,1.76,4.92,3.55,7.04,5.68c1.08,1.08,1.38,2.93,2.03,4.44
		c-1.72,0.15-3.59,0.81-5.12,0.35c-5.67-1.73-11.22-3.84-16.82-5.8C1142.78,518.02,1142.87,518.13,1142.87,518.13z"/>
	<path class="st2" d="M943.8,1177.74c-6.9,3.82-11.63,6.43-16.35,9.05c-0.55-1.4-1.91-3.69-1.51-4.06c3.47-3.2,7.15-6.2,11.05-8.84
		C937.56,1173.51,939.63,1175.33,943.8,1177.74z"/>
	<path class="st2" d="M1192.17,565.11c2.75,2.29,5.65,4.71,8.55,7.13c-1.87,1.46-4.58,4.56-5.48,4.1
		c-4.12-2.09-7.74-5.18-11.54-7.91C1185.87,567.58,1188.04,566.73,1192.17,565.11z"/>
	<path class="st2" d="M373.63,708.32c0.01,1.5,0.39,3.13-0.05,4.48c-0.63,1.89-1.87,3.58-2.85,5.36c-1.84-1.31-4.2-2.29-5.35-4.06
		c-0.78-1.19-0.12-3.56,0.36-5.27c0.28-1.01,1.51-1.73,2.24-2.64c1.53-1.92,3-3.89,4.5-5.84c0.7,2.59,1.41,5.18,2.11,7.77
		C374.26,708.18,373.94,708.25,373.63,708.32z"/>
	<path class="st2" d="M1155.19,1040.77c1.13-1.7,2.27-3.4,3.4-5.11c3.52,2.45,7.04,4.89,10.55,7.34c-1.62,0.72-3.68,2.45-4.78,1.97
		C1161.6,1043.79,1154.38,1052.09,1155.19,1040.77z"/>
	<path class="st2" d="M1051.31,1133.71c1.93,3.75,3.56,6.11,4.25,8.72c0.22,0.82-2.1,2.31-3.25,3.49c-1.9-1.91-3.9-3.74-5.56-5.84
		C1046.53,1139.81,1048.12,1138.11,1051.31,1133.71z"/>
	<path class="st2" d="M1023.41,438.68c-1.71-1.57-2.99-2.75-4.28-3.93c1.37-0.82,2.83-2.42,4.1-2.28c2.17,0.24,4.22,1.57,6.31,2.45
		C1027.72,436.04,1025.89,437.16,1023.41,438.68z"/>
	<path class="st2" d="M605.83,1145.92c-2.17,1.72-3.77,3.62-4.38,3.34c-1.59-0.73-2.75-2.4-4.08-3.69c1.11-0.84,2.25-2.39,3.32-2.35
		C602.09,1143.27,603.44,1144.59,605.83,1145.92z"/>
	<path class="st2" d="M388.33,843.57c-1.55,2.5-2.79,4.53-4.04,6.55c-0.45-1.37-1.4-2.81-1.23-4.1c0.26-2.05,1.27-4,1.96-5.99
		C386,841.09,386.99,842.15,388.33,843.57z"/>
	<path class="st2" d="M1206.59,960.27c-1.24,1.65-2.23,2.96-3.22,4.28c-0.81-1.26-2.37-2.59-2.26-3.76
		c0.16-1.63,1.56-3.13,2.43-4.69C1204.44,957.32,1205.33,958.54,1206.59,960.27z"/>
	<path class="st2" d="M905.03,392.87c-1.85,1.59-3.13,3.01-4.73,3.84c-0.45,0.24-1.8-1.23-2.74-1.92c1.5-1.92,3-3.83,4.5-5.75
		C902.83,390.04,903.6,391.03,905.03,392.87z"/>
	<path class="st2" d="M877.25,1212.42c1.9,1.14,3.7,2.22,5.49,3.29c-0.86,0.52-1.82,1.6-2.56,1.46c-2.83-0.52-5.58-1.44-8.36-2.2
		C873.44,1214.21,875.06,1213.45,877.25,1212.42z"/>
	<path class="st2" d="M1202.98,1003.57c-1.3,1.67-2.38,3.06-3.46,4.44c-0.68-1.14-2.09-2.44-1.88-3.4c0.36-1.7,1.69-3.2,2.62-4.78
		C1201.03,1000.89,1201.8,1001.95,1202.98,1003.57z"/>
	<path class="st2" d="M1098.77,1078.28c1.62,1.45,2.87,2.55,4.11,3.65c-1.2,0.59-2.52,1.81-3.57,1.61
		c-1.51-0.28-2.83-1.59-4.24-2.47C1096.12,1080.27,1097.19,1079.47,1098.77,1078.28z"/>
	<path class="st2" d="M1003.18,1131.59c-2.55,1.5-3.63,2.67-4.56,2.56c-1.44-0.17-2.77-1.21-4.15-1.88c0.89-0.78,1.74-2.12,2.69-2.2
		C998.57,1129.95,1000.05,1130.73,1003.18,1131.59z"/>
	<path class="st2" d="M962.51,1159.66c-1.41,1.87-2.42,3.23-3.44,4.58c-0.67-0.91-2.03-1.96-1.88-2.69c0.34-1.59,1.45-3.01,2.25-4.5
		C960.31,1157.79,961.17,1158.52,962.51,1159.66z"/>
	<path class="st2" d="M1184.86,1048.46c-2.59,1.4-3.73,2.54-4.6,2.37c-1.57-0.31-2.98-1.41-4.45-2.17c1.01-0.65,2.01-1.78,3.05-1.82
		C1180.28,1046.78,1181.74,1047.55,1184.86,1048.46z"/>
	<path class="st2" d="M394.94,733.07c-1.41-2.95-2.41-4.14-2.44-5.35c-0.03-1.24,0.9-2.5,1.41-3.75c0.89,0.95,2.37,1.8,2.54,2.87
		C396.66,728.2,395.83,729.73,394.94,733.07z"/>
	<path class="st2" d="M1055.17,398c-1.79,1.34-2.77,2.64-3.76,2.64c-0.83,0-2.38-1.57-2.31-2.33c0.08-0.94,1.41-2.28,2.38-2.46
		C1052.33,395.7,1053.43,396.92,1055.17,398z"/>
	<path class="st2" d="M891.71,389.45c-1.75,0.79-2.69,1.6-3.26,1.39c-1.09-0.4-1.97-1.38-2.94-2.12c0.71-0.5,1.52-1.51,2.11-1.39
		C888.76,387.53,889.78,388.38,891.71,389.45z"/>
	<path class="st2" d="M949.66,1182.54c0.56,1.78,1.3,2.96,1.12,3.96c-0.14,0.75-1.5,1.76-2.31,1.76c-0.86,0-1.72-1.07-2.57-1.67
		C946.58,1185.87,947.26,1185.13,949.66,1182.54z"/>
	<path class="st2" d="M1076.62,1100.36c0.72,1.7,1.46,2.74,1.47,3.78c0.01,0.62-1.27,1.85-1.76,1.75c-0.93-0.19-1.85-1.02-2.44-1.83
		C1073.75,1103.86,1074.85,1102.74,1076.62,1100.36z"/>
	<path class="st2" d="M1025.52,1112.3c0.89,1.01,1.94,1.68,1.93,2.34c-0.01,0.63-1.11,1.75-1.72,1.74c-0.68-0.01-1.77-0.96-1.9-1.65
		C1023.72,1114.15,1024.73,1113.36,1025.52,1112.3z"/>
	<path class="st2" d="M1189.74,1012.78c-0.78-0.85-1.77-1.54-1.66-1.9c0.23-0.74,1.04-1.29,1.61-1.93c0.51,0.54,1.38,1.06,1.43,1.64
		C1191.17,1011.18,1190.39,1011.82,1189.74,1012.78z"/>
	<path class="st2" d="M732.29,1232.68c-1.05,0.84-1.76,1.79-2.2,1.67c-0.79-0.2-1.43-1.04-2.13-1.61c0.53-0.55,1.07-1.55,1.57-1.53
		C730.31,1231.24,731.06,1231.98,732.29,1232.68z"/>
	<path class="st2" d="M821.03,1242.31c0.89,1.31,1.46,2.15,2.03,2.99c-0.73,0.45-1.56,1.36-2.18,1.24
		c-0.74-0.14-1.66-1.11-1.81-1.85C818.97,1244.17,820.05,1243.43,821.03,1242.31z"/>
	<path class="st2" d="M836.22,1243.99c0.69,0.95,1.49,1.57,1.43,2.09c-0.07,0.58-0.91,1.07-1.42,1.6c-0.52-0.51-1.39-0.99-1.44-1.54
		C834.74,1245.6,835.52,1244.98,836.22,1243.99z"/>
	<path class="st2" d="M958.35,1174.43c0.56,1.47,1.09,2.24,1.05,2.97c-0.04,0.55-0.81,1.06-1.26,1.58
		c-0.54-0.52-1.23-0.96-1.54-1.59C956.46,1177.1,957.12,1176.44,958.35,1174.43z"/>
	<path class="st2" d="M1192.49,558.76c-1.07,0.64-1.77,1.39-2.26,1.27c-0.54-0.13-1.06-1.02-1.22-1.66
		c-0.07-0.27,0.89-1.16,1.26-1.09C1190.91,557.39,1191.45,558.02,1192.49,558.76z"/>
	<path class="st2" d="M1197.51,1032.48c-0.65-0.86-1.27-1.31-1.26-1.76c0-0.46,0.62-0.9,0.97-1.36c0.43,0.39,1.1,0.72,1.2,1.18
		C1198.51,1030.97,1197.98,1031.53,1197.51,1032.48z"/>
	<path class="st2" d="M1140.4,1080.47c-0.79-1.26-1.35-1.86-1.52-2.56c-0.06-0.27,0.76-0.75,1.18-1.13
		c0.41,0.48,1.03,0.91,1.17,1.47C1141.35,1078.69,1140.88,1079.28,1140.4,1080.47z"/>
	<path class="st2" d="M836.86,1227.91c-0.58-0.72-1.33-1.43-1.24-1.57c0.37-0.55,1.01-0.92,1.55-1.36c0.36,0.45,1.02,0.91,1,1.35
		C838.15,1226.78,837.48,1227.2,836.86,1227.91z"/>
	<path class="st2" d="M963.11,433.5c-0.92,0.47-1.41,0.72-1.9,0.98c-0.25-0.51-0.64-1.02-0.69-1.55c-0.02-0.25,0.74-0.84,0.97-0.76
		C961.97,432.32,962.34,432.83,963.11,433.5z"/>
	<path class="st2" d="M976.46,1144.25c-0.86,0.71-1.3,1.36-1.77,1.39c-0.45,0.02-0.93-0.61-1.4-0.96c0.38-0.46,0.7-1.16,1.17-1.29
		C974.88,1143.28,975.48,1143.8,976.46,1144.25z"/>
	<path class="st2" d="M1056.25,1116.14c-0.97-2.59-1.32-3.11-1.3-3.6c0.02-0.28,0.8-0.81,1-0.71c0.48,0.23,1.06,0.71,1.14,1.16
		C1057.18,1113.55,1056.81,1114.18,1056.25,1116.14z"/>
	<path class="st2" d="M1013.79,445.98c0.54,0.87,0.99,1.31,1.05,1.79c0.03,0.28-0.6,0.94-0.84,0.9c-0.49-0.09-1.24-0.49-1.29-0.85
		C1012.66,447.4,1013.22,446.89,1013.79,445.98z"/>
	<path class="st2" d="M974.45,439.5c0.81-0.64,1.25-1.26,1.73-1.29c0.36-0.03,1.15,0.75,1.09,1.04c-0.1,0.49-0.65,1.11-1.13,1.24
		C975.79,440.59,975.24,440,974.45,439.5z"/>
	<path class="st2" d="M1054.36,686.88c6.55,0.42,11.13-7.9,10.19-13.7c-0.5-3.11,0.96-6.58,1.74-9.84c0.5-2.06,1.26-4.08,2.1-6.04
		c3.08-7.19,6.6-14.22,9.19-21.57c1.19-3.39,1.88-7.94,0.57-11.02c-2.36-5.57-1.91-7.42,4.25-9.67c7.67-2.8,9.14-1.13,9.02,6.4
		c-0.08,5.35,3.15,10.92,2.43,16.05c-0.97,6.91-4.3,13.5-6.67,20.21c-0.15,0.42-0.69,1.02-1.04,1.02
		c-11.24-0.15-7.61,8.79-9.27,14.72c-1.87,6.69-4.37,13.21-6.77,19.74c-0.33,0.91-1.84,2.2-2.5,2.04c-5.43-1.3-10.81-2.84-16.15-4.5
		c-0.41-0.13-0.73-2.35-0.5-2.47C1052.49,687.43,1054.17,686.95,1054.36,686.88z"/>
	<path class="st2" d="M1033.05,657.33c2.37-9.23,5-18.99,7.31-28.81c0.67-2.83,1.73-7.11,0.34-8.59c-4.64-4.92-3.16-7.49,2.15-9.59
		c1.82-0.72,4.51-2.01,5.54-1.27c1.55,1.12,2.83,3.8,2.78,5.78c-0.27,10.11-0.31,20.32-1.78,30.29c-1.3,8.86-4.32,17.47-6.78,26.14
		c-0.12,0.42-3.01,0.7-3.19,0.35C1037.32,667.35,1035.49,662.93,1033.05,657.33z"/>
	<path class="st2" d="M760.88,649.85c-2.28-1.25-6.11-2.18-6.45-3.83c-0.47-2.24,1.39-5.26,2.87-7.55
		c4.07-6.27,9.68-10.53,17.51-9.51c2.49,0.32,5.26,2.54,6.82,4.68c1.47,2.02,2.29,5.18,1.99,7.66c-0.43,3.5-1.17,8.28-3.55,9.92
		c-3.83,2.63-9.38,7.09-13.37-0.96c-0.61-1.23-3.26-1.46-4.96-2.15C761.45,648.68,761.16,649.26,760.88,649.85z"/>
	<path class="st2" d="M932.41,797.36c-3.69,5.49-6.47,10.11-9.85,14.25c-0.68,0.83-3.65-0.21-5.56-0.39
		c0.3-1.48,0.67-2.95,0.88-4.44c0.17-1.23,0.67-2.83,0.12-3.67c-6.4-9.88-12.95-19.67-19.54-29.42c-0.61-0.9-1.84-1.36-2.74-2.08
		c-1.5-1.2-2.97-2.44-4.45-3.67c2.7-0.65,6.67-2.75,7.89-1.69c5.04,4.37,10.5,9.06,13.41,14.84c3.18,6.32,7.02,10.22,13.65,12.05
		C928.25,793.69,929.9,795.59,932.41,797.36z"/>
	<path class="st2" d="M1046.02,716.52c-1.87,5.68-3.5,11.45-5.77,16.96c-0.53,1.29-3.2,1.71-4.88,2.53c-0.5-2.01-1.4-4.03-1.37-6.03
		c0.02-1.51,0.98-3.2,1.95-4.48c5.45-7.2,4.21-9.82-3.78-13.81c-3.76-1.88-6.86-6.49-8.6-10.57c-1.57-3.68,5.23-7.32,9.41-4.77
		C1040.21,700.79,1047.52,705.51,1046.02,716.52z"/>
	<path class="st2" d="M998.13,675.32c0.04-6.3,12.19-17.34,16.88-16.35c1.28,0.27,3.11,3.06,2.88,4.39
		c-0.92,5.48-2.38,10.88-3.96,16.22c-0.84,2.83-2.33,5.46-3.53,8.19c-3.08-1.67-6.74-2.78-9.07-5.18
		C999.31,680.49,998.79,676.94,998.13,675.32z"/>
	<path class="st2" d="M968.82,611.55c7.14,0.78,12.97,1.29,18.76,2.14c1.26,0.18,2.61,1.39,3.34,2.51c0.25,0.38-1.23,1.96-2,2.93
		c-0.75,0.95-1.61,1.81-2.42,2.71c1.2,0.45,2.44,0.83,3.6,1.36c2.01,0.93,3.98,1.95,5.97,2.94c-2.4,0.52-4.84,1.6-7.19,1.44
		c-4.48-0.3-9.5-0.25-13.22-2.3c-3.92-2.16-6.69-6.53-9.64-10.19C965.79,614.8,968.05,612.5,968.82,611.55z"/>
	<path class="st2" d="M986.68,853.7c-1.98,3.3-2.91,4.86-3.85,6.42c-2.95-3.89-5.89-7.79-8.84-11.68c1.2-0.89,3.13-2.77,3.5-2.51
		C980.63,848.23,983.48,850.91,986.68,853.7z"/>
	<path class="st2" d="M942.37,812.84c2.09,1.97,4.29,4.05,6.5,6.14c-1.51,1.59-4.17,4.67-4.35,4.54c-3.12-2.41-5.93-5.21-8.81-7.93
		C937.38,814.89,939.05,814.21,942.37,812.84z"/>
	<path class="st2" d="M1046.78,733.73c1.65-3.12,3.13-5.95,4.62-8.78c1.99,2.3,5.97,5.14,5.53,6.78c-0.75,2.77-4.3,4.79-6.68,7.12
		C1049.24,737.36,1048.23,735.86,1046.78,733.73z"/>
	<path class="st2" d="M890.71,780.29c-3.06,2.37-4.79,4.71-6.17,4.52c-1.89-0.26-3.52-2.44-5.26-3.8c1.56-1.77,2.84-4.39,4.77-5.02
		C885.3,775.59,887.49,778.1,890.71,780.29z"/>
	<path class="st2" d="M798.31,615c-2.07-1.77-3.89-3.33-5.72-4.89c1.89-0.49,3.77-0.99,5.66-1.46c0.31-0.08,0.69-0.04,1,0.05
		c2.59,0.77,5.18,1.57,7.76,2.35C804.39,612.24,801.77,613.43,798.31,615z"/>
	<path class="st2" d="M836.82,738.22c-2.59-3.32-4.41-5.56-5.99-7.95c-0.08-0.13,2.55-2.43,2.72-2.29c1.95,1.63,3.87,3.4,5.3,5.48
		C839.23,734.02,837.93,735.74,836.82,738.22z"/>
	<path class="st2" d="M859.55,755.08c-2.5-1.54-4.46-2.75-6.43-3.96c1.64-0.98,3.35-2.85,4.9-2.72c1.92,0.16,3.71,1.97,5.56,3.07
		C862.38,752.54,861.19,753.61,859.55,755.08z"/>
	<path class="st2" d="M925.34,835.14c3.7-4.13,4.76-5.33,5.83-6.52c1.06,1.9,2.39,3.72,3.02,5.75c0.19,0.62-1.6,2.65-2.43,2.62
		C929.85,836.91,927.97,835.97,925.34,835.14z"/>
	<path class="st2" d="M1051.61,701.73c-2.06-1.58-3.45-2.65-4.85-3.72c1.32-1.01,2.66-2.83,3.95-2.8c1.4,0.04,2.75,1.81,4.12,2.82
		C1053.93,699.07,1053.03,700.11,1051.61,701.73z"/>
	<path class="st2" d="M996.74,869.78c-1.12-2.3-2.08-3.37-2-4.35c0.08-1.01,1.18-1.94,1.83-2.91c0.74,0.93,1.95,1.79,2.09,2.8
		C998.8,866.29,997.83,867.42,996.74,869.78z"/>
	<path class="st2" d="M805.5,683.41c-1.18,1.06-1.85,2.15-2.51,2.14c-0.96-0.02-1.9-0.83-2.85-1.3c0.63-0.79,1.16-2.1,1.91-2.24
		C802.91,681.85,803.96,682.73,805.5,683.41z"/>
	<path class="st2" d="M792.36,685.19c0.88,1.14,1.39,1.81,1.89,2.47c-0.89,0.56-1.73,1.31-2.71,1.6c-0.34,0.1-1.54-1.23-1.44-1.41
		C790.58,686.99,791.36,686.3,792.36,685.19z"/>
	<path class="st2" d="M804.04,669.1c-0.81,0.76-1.32,1.24-1.82,1.72c-0.43-0.56-1.08-1.08-1.21-1.71c-0.08-0.39,0.73-1.38,0.96-1.33
		C802.6,667.92,803.14,668.48,804.04,669.1z"/>
	<path class="st2" d="M703.43,668.9c-1.03,5.73-4.82,11.66,1.77,16.86c0.54,0.42-1.4,6.28-3.07,6.81c-6.55,2.06-8.74,4.74-3.9,10.65
		c0.51,0.63,0.15,1.97,0.2,2.98c-3.56,0.01-7.21,0.43-10.63-0.25c-0.85-0.17-2.02-4.38-1.28-5.88c2.07-4.24,5.14-7.99,7.62-12.05
		c0.75-1.23,1.65-3.24,1.16-4.22c-5.49-10.87-3.5-14.59,8.25-14.82C703.54,668.99,703.43,668.9,703.43,668.9z"/>
	<path class="st2" d="M714.73,726.9c4.17-3.98,6.74-8.37,9.42-8.44c2.75-0.07,8.32,4.95,7.91,6.25c-1.26,4.01-4.78,7.3-7.43,10.88
		C721.83,733.13,719.03,730.67,714.73,726.9z"/>
	<path class="st2" d="M757.2,730.96c-1.75,1.97-2.78,4.15-4.21,4.47c-1.79,0.4-4.53-0.12-5.79-1.34c-2.75-2.67-5.21-5.83-7.05-9.2
		c-1.1-2.02-0.81-4.8-1.15-7.23c1.77,0.86,3.67,1.53,5.3,2.61c3.08,2.04,6.08,4.24,8.99,6.52
		C754.56,727.78,755.53,729.15,757.2,730.96z"/>
	<path class="st2" d="M690,744.33c-3.61,4.78-6.04,8-8.47,11.23c-1.44-1.6-4.3-3.45-4.07-4.75c0.74-4.17,2.63-8.13,4.07-12.18
		C683.77,740.13,686,741.63,690,744.33z"/>
	<path class="st2" d="M713.16,808.65c0.03,0.43-0.58-1.18-0.04-2.19c1.28-2.44,3.1-4.6,4.7-6.88c1.11,2.02,2.82,3.94,3.19,6.08
		c0.52,3.08,0.59,6.46-0.18,9.44c-0.51,1.96-2.83,3.46-4.34,5.16c-1.09-1.94-2.39-3.8-3.19-5.86
		C712.82,813.24,713.18,811.76,713.16,808.65z"/>
	<path class="st2" d="M886.63,906.74c-4.3-3.29-7.77-5.94-11.25-8.6c1.8-1.68,4.89-5.04,5.22-4.79c3.08,2.36,5.89,5.18,8.28,8.25
		C889.35,902.2,887.68,904.45,886.63,906.74z"/>
	<path class="st2" d="M693.63,918.12c0.23-4.24,0.11-7.28,0.67-10.18c0.28-1.46,1.83-2.67,2.8-3.99c1.16,1.41,3.45,2.98,3.27,4.2
		c-0.57,4.04-1.97,7.98-3.22,11.9c-0.17,0.54-1.26,0.78-1.92,1.16C694.53,919.85,693.82,918.48,693.63,918.12z"/>
	<path class="st2" d="M707.1,734.92c-2.25,1.79-4.49,3.58-6.74,5.37c-1.03-1.44-3.21-3.29-2.87-4.23c1-2.79,2.53-5.89,4.82-7.51
		c1.09-0.77,4.37,1.54,6.65,2.45C708.34,732.31,707.72,733.62,707.1,734.92z"/>
	<path class="st2" d="M709.62,693.29c2.11,1.51,3.23,2.31,4.36,3.12c-2.1,1.77-4.2,3.55-6.3,5.32c-0.64-1.02-2.03-2.36-1.76-3
		C706.7,696.91,708.15,695.36,709.62,693.29z"/>
	<path class="st2" d="M878.82,862.69c-2.81,2.11-5.1,3.85-7.44,5.5c-0.05,0.03-1.19-1.12-1.09-1.3c1.69-2.92,3.49-5.78,5.27-8.65
		C876.34,859.3,877.12,860.37,878.82,862.69z"/>
	<path class="st2" d="M764.04,951.59c-1.79-1.16-3.3-2.14-4.82-3.12c1.43-0.75,3.02-2.32,4.26-2.08c1.95,0.38,3.66,1.97,5.47,3.05
		C767.44,950.11,765.93,950.77,764.04,951.59z"/>
	<path class="st2" d="M870.4,909.88c1.82,1.28,3.2,2.25,4.58,3.22c-1.6,0.82-3.19,2.25-4.8,2.27c-1.42,0.02-2.86-1.52-4.29-2.38
		C867.26,912.05,868.64,911.1,870.4,909.88z"/>
	<path class="st2" d="M816.22,823.15c2.05-1.32,3.4-2.41,4.95-2.99c0.3-0.11,2.15,2.2,1.9,2.64c-0.97,1.76-2.48,3.22-3.79,4.8
		C818.46,826.41,817.64,825.22,816.22,823.15z"/>
	<path class="st2" d="M832.51,815c-0.66,0.02-1.4,0.24-1.97,0.03c-2.01-0.74-3.96-1.62-5.94-2.45c1.09-0.75,2.82-2.37,3.17-2.11
		c1.74,1.27,3.13,3.04,4.64,4.64C832.41,815.11,832.51,815,832.51,815z"/>
	<path class="st2" d="M786.64,787.8c-1.58-1.18-2.68-2-3.77-2.81c1.03-0.81,2.04-2.25,3.09-2.28c1.2-0.03,2.42,1.21,3.63,1.9
		C788.71,785.55,787.84,786.5,786.64,787.8z"/>
	<path class="st2" d="M684.71,715.7c-1.25,1.44-2.14,2.46-3.03,3.48c-0.6-0.99-1.8-2.07-1.67-2.95c0.18-1.22,1.34-2.31,2.09-3.45
		C682.88,713.65,683.65,714.52,684.71,715.7z"/>
	<path class="st2" d="M749.31,957.31c-0.58-2.12-1.38-3.49-1.13-4.63c0.2-0.91,1.67-2.07,2.62-2.11c0.94-0.04,1.94,1.18,2.91,1.85
		C752.94,953.27,752.17,954.13,749.31,957.31z"/>
	<path class="st2" d="M834.97,924.06c-1.8,1.28-2.71,2.44-3.43,2.33c-1.22-0.18-2.33-1.16-3.48-1.8c0.83-0.65,1.61-1.73,2.5-1.83
		C831.62,922.63,832.77,923.36,834.97,924.06z"/>
	<path class="st2" d="M805.08,955.26c-1.55-2.12-2.54-2.9-2.44-3.49c0.11-0.62,1.31-1.5,1.96-1.44c0.65,0.06,1.6,1.09,1.7,1.79
		C806.4,952.91,805.69,953.8,805.08,955.26z"/>
	<path class="st2" d="M766.34,787.72c-0.84,0.79-1.52,1.8-1.86,1.7c-0.74-0.23-1.3-1.03-1.93-1.59c0.54-0.51,1.04-1.37,1.62-1.43
		C764.73,786.33,765.38,787.1,766.34,787.72z"/>
	<path class="st2" d="M832.41,815.11c1.35,0.96,2.7,1.91,4.05,2.87c-0.45,0.41-0.89,0.82-1.34,1.23c-0.87-1.4-1.74-2.8-2.61-4.21
		C832.51,815,832.41,815.11,832.41,815.11z"/>
	<path class="st2" d="M801.96,830.14c-0.98,0.7-1.6,1.5-2.14,1.45c-0.57-0.06-1.06-0.93-1.58-1.44c0.52-0.52,1-1.4,1.57-1.45
		C800.35,828.64,800.97,829.43,801.96,830.14z"/>
	<path class="st2" d="M807.22,793.51c-0.65-0.87-1.28-1.35-1.26-1.8c0.02-0.48,0.65-0.94,1.01-1.41c0.43,0.4,1.14,0.74,1.22,1.2
		C808.28,791.96,807.73,792.53,807.22,793.51z"/>
	<path class="st2" d="M536.28,865.82c1.31-2.62,2.41-4.82,3.5-7.03c0.73,1.48,2.22,3.07,2.02,4.41c-0.33,2.25-1.73,4.33-2.68,6.49
		C538.28,868.53,537.43,867.38,536.28,865.82z"/>
	<path class="st2" d="M551.71,881.61c-2.6,1.79-4.1,3.61-5.72,3.72c-1.52,0.1-3.16-1.6-4.74-2.5c2.13-1.25,4.19-2.69,6.45-3.64
		C548.29,878.95,549.53,880.25,551.71,881.61z"/>
	<path class="st2" d="M615.1,807.53c-1.27,1.66-2.19,2.85-3.1,4.04c-0.77-1.24-2.14-2.47-2.15-3.72c-0.02-1.31,1.25-2.65,1.96-3.97
		C612.79,804.97,613.77,806.06,615.1,807.53z"/>
	<path class="st2" d="M593.18,774.77c-1.85,1.04-2.78,1.97-3.31,1.78c-1.44-0.51-2.71-1.5-4.05-2.3c0.78-0.45,1.62-1.34,2.34-1.25
		C589.5,773.16,590.78,773.88,593.18,774.77z"/>
	<path class="st2" d="M932.37,517.78c-4.95-0.82-9.87-1.95-14.84-2.35c-3.42-0.28-7.52-0.6-10.27,0.95
		c-6.17,3.48-9.13,1.4-11.74-4.22c-0.9-1.94-2.98-4.19-4.91-4.63c-7.09-1.63-10.37-5.64-9.7-12.85c0.17-1.86-0.14-4.86,0.81-5.37
		c3.74-1.98,7.86-3.27,11.94-4.51c0.33-0.1,2.22,2.75,1.94,3.12c-5.68,7.41,3.63,10.37,5.02,15.63c0.24,0.9,6.77,0.66,10.25,0.08
		c6.26-1.04,12.46-3.94,18.58-3.66c3.02,0.14,5.6,5.86,8.75,8.64c3.8,3.35,8.12,6.12,11.96,9.44c1.16,1.01,2.27,3.16,1.99,4.49
		c-0.37,1.8-1.83,3.67-3.33,4.87c-2.41,1.92-5.2,3.38-7.9,4.91c-1.93,1.09-3.92,2.2-6.03,2.79c-0.5,0.14-2.37-1.93-2.23-2.73
		c0.37-2.08,1.54-4.01,2.33-6.03c0.9-2.29,2.14-4.58,2.33-6.94c0.06-0.7-2.91-1.65-4.5-2.48
		C932.66,517.19,932.52,517.48,932.37,517.78z"/>
	<path class="st2" d="M784.79,483.15c-0.79,3.97-1.06,7.02-2.1,9.78c-0.42,1.11-2.73,2.43-3.79,2.16c-1.41-0.37-3.57-2.31-3.46-3.38
		c0.65-6.42-2.65-7.72-8.11-7.58c-1.64,0.04-3.32-1.67-4.99-2.57c1.64-0.64,3.67-0.88,4.81-2.02c1.78-1.77,3.11-4.05,4.32-6.29
		c1.18-2.17,1.95-4.56,2.91-6.85c0.87,1.8,1.6,3.68,2.63,5.37c1.82,2.97,3.8,5.85,5.76,8.73
		C783.56,481.66,784.48,482.74,784.79,483.15z"/>
	<path class="st2" d="M971.27,524.49c-1.48,3.26-3.02,6.49-4.4,9.79c-0.43,1.02-0.78,2.31-0.53,3.32c0.41,1.67,1.33,3.21,2.03,4.81
		c-3.23-0.01-6.53,0.32-9.66-0.23c-0.98-0.17-2.24-2.75-2.18-4.19c0.39-10.48,4.46-14.03,14.85-13.4L971.27,524.49z"/>
	<path class="st2" d="M716.94,546.11c-1.95-3.63-4.06-5.94-3.56-6.89c3.05-5.84,6.54-11.48,10.29-16.91
		c0.66-0.96,3.23-0.6,4.91-0.85c-0.35,1.46-0.55,2.97-1.07,4.37c-1.6,4.35-3.13,8.74-5.06,12.93
		C721.49,540.83,719.69,542.51,716.94,546.11z"/>
	<path class="st2" d="M938.42,551.08c-5.21-0.52-9.1-0.62-12.84-1.43c-1.28-0.28-2.16-2.36-3.22-3.61c1.49-0.55,3.02-1.65,4.46-1.55
		c3.47,0.25,6.98,0.82,10.34,1.74c2.2,0.6,4.17,2.05,6.24,3.11C941.35,550.06,939.29,550.78,938.42,551.08z"/>
	<path class="st2" d="M815.55,456.57c1.3-2.17,2.59-4.33,3.89-6.49c0.98,1.68,3.04,3.61,2.72,4.98c-0.65,2.76-2.59,5.22-3.99,7.81
		C817.4,461.04,816.64,459.21,815.55,456.57z"/>
	<path class="st2" d="M758.21,524.33c-2.96-5.14-4.4-6.84-4.8-8.76c-0.14-0.66,2.61-2.85,3.57-2.6c1.95,0.52,4.8,2.04,5.03,3.51
		C762.29,518.25,760.25,520.4,758.21,524.33z"/>
	<path class="st2" d="M999.31,556.07c-1.9-0.83-4.34-1.89-6.79-2.96c2.02-0.78,4.22-2.48,6.03-2.14c2.65,0.51,5.03,2.47,7.53,3.82
		C1004.15,555.16,1002.23,555.52,999.31,556.07z"/>
	<path class="st2" d="M813.39,429.87c-1.3,0.06-2.61,0.1-3.91,0.19c-1.76,0.12-3.52,0.29-5.28,0.43c0.95-2.06,1.89-4.12,2.84-6.18
		c2.17,1.23,4.38,2.4,6.48,3.75c0.23,0.15-0.14,1.25-0.24,1.91C813.29,429.97,813.39,429.87,813.39,429.87z"/>
	<path class="st2" d="M750.37,537.25c-2.34-1.13-4.4-2.13-6.46-3.13c1.76-0.84,3.59-2.48,5.25-2.32c2.19,0.21,4.24,1.84,6.35,2.85
		C753.92,535.46,752.33,536.26,750.37,537.25z"/>
	<path class="st2" d="M813.15,498.75c1.37-1.91,2.59-3.6,3.81-5.3c0.6,1.59,1.87,3.29,1.62,4.74c-0.34,1.98-1.84,3.75-2.84,5.61
		C814.98,502.32,814.22,500.83,813.15,498.75z"/>
	<path class="st2" d="M971.38,524.59c0.52-1.04,0.83-2.71,1.62-2.98c1.84-0.63,3.92-0.78,5.89-0.72c0.58,0.02,1.13,1.36,1.69,2.1
		c-1.6,0.49-3.17,1.15-4.81,1.42c-1.46,0.24-2.99,0.07-4.49,0.08C971.27,524.49,971.38,524.59,971.38,524.59z"/>
	<path class="st2" d="M738.72,511.27c1.14-1.53,1.94-2.6,2.74-3.67c0.87,1.19,2.4,2.37,2.43,3.58c0.03,1.26-1.4,2.55-2.19,3.83
		C740.79,513.86,739.88,512.72,738.72,511.27z"/>
	<path class="st2" d="M838.51,438.34c-2.77,1.21-3.99,2.13-5.22,2.15c-1.08,0.02-2.17-0.97-3.26-1.52c1.22-0.89,2.33-2.15,3.69-2.53
		C834.61,436.19,835.85,437.22,838.51,438.34z"/>
	<path class="st2" d="M861.47,471.13c-0.53-1.66-1.19-2.63-0.98-3.35c0.25-0.87,1.24-1.52,1.91-2.27c0.3,0.86,0.91,1.76,0.83,2.58
		C863.14,468.9,862.37,469.64,861.47,471.13z"/>
	<path class="st2" d="M813.29,429.97c1.41,0.87,2.82,1.74,4.23,2.61c-0.42,0.45-0.84,0.9-1.26,1.35c-0.96-1.35-1.92-2.7-2.88-4.05
		C813.39,429.87,813.29,429.97,813.29,429.97z"/>
	<path class="st2" d="M490.04,713.75c-0.66,1.76-1.12,5.6-3.25,7.93c-1.86,2.04-5.59,2.37-8.5,3.46c-0.92-2.57-3.02-5.38-2.55-7.65
		c1.6-7.69,4.06-15.21,6.37-22.73c0.26-0.86,2.19-2.09,2.41-1.93c1.35,1.03,3.19,2.27,3.45,3.71
		C488.91,701.62,489.27,706.82,490.04,713.75z"/>
	<path class="st2" d="M463.14,751.01c0.55-6.5,0.69-11.89,1.65-17.12c0.32-1.72,2.76-3.06,4.23-4.57c1.33,2.06,4.04,4.37,3.73,6.15
		c-0.93,5.39-2.92,10.62-4.78,15.8c-0.42,1.16-2.03,1.88-3.09,2.81C464.13,752.76,463.39,751.45,463.14,751.01z"/>
	<path class="st2" d="M479.84,783.62c0.65-5.99,0.99-10.17,1.62-14.31c0.14-0.94,1.27-1.72,1.94-2.58c0.7,0.61,1.98,1.19,2.02,1.84
		c0.37,5.79,0.76,11.61,0.54,17.39c-0.05,1.38-2.37,2.67-3.65,4C481.3,787.37,480.28,784.76,479.84,783.62z"/>
	<path class="st2" d="M466.39,638.08c-1.59-2.85-3.58-4.83-3.2-6.09c0.6-2.01,2.79-5.01,4.29-5c3.7,0.03,7.39,1.53,11.08,2.44
		C474.93,632.01,471.3,634.59,466.39,638.08z"/>
	<path class="st2" d="M549.19,686.38c2.85-3.27,5.34-6.12,7.82-8.97c1.24,1.45,3.8,3.76,3.51,4.2c-2.17,3.28-4.89,6.18-7.44,9.21
		C552.14,689.74,551.2,688.67,549.19,686.38z"/>
	<path class="st2" d="M502.01,654.91c-3.06-1.88-5.23-3.2-7.4-4.53c3.77-1.01,7.51-2.14,11.33-2.91c0.59-0.12,1.52,1.42,2.29,2.2
		C506.33,651.26,504.43,652.86,502.01,654.91z"/>
	<path class="st2" d="M524.37,721.92c-2.27,2.18-3.88,4.83-5.17,4.68c-1.61-0.19-4.25-2.82-4.1-4.14c0.2-1.8,2.38-3.76,4.21-4.78
		C519.88,717.37,522.03,719.9,524.37,721.92z"/>
	<path class="st2" d="M511.02,691.11c1.07-2.44,2.24-5.1,3.41-7.77c0.58,1.79,1.84,3.69,1.6,5.36c-0.47,3.24-1.79,6.35-2.76,9.52
		C512.59,696.1,511.92,693.98,511.02,691.11z"/>
	<path class="st2" d="M541.2,639.84c-2.96,0.9-4.3,1.74-5.48,1.55c-1.22-0.19-2.27-1.39-3.4-2.15c1.41-0.62,2.78-1.59,4.23-1.74
		C537.51,637.41,538.6,638.47,541.2,639.84z"/>
	<path class="st2" d="M504.97,772.65c-0.85,0.77-1.57,1.76-1.91,1.64c-0.73-0.25-1.27-1.07-1.89-1.65c0.55-0.5,1.07-1.37,1.65-1.41
		C503.39,771.19,504.02,771.98,504.97,772.65z"/>
	<path class="st2" d="M510.07,731.97c0.51,1.53,0.96,2.19,0.85,2.72c-0.14,0.63-0.7,1.25-1.24,1.65c-0.14,0.11-1.3-0.62-1.28-0.94
		C508.43,734.77,508.95,734.17,510.07,731.97z"/>
	<path class="st2" d="M762.29,1075.91c-1.91,1.76-2.93,3.05-4.26,3.72c-0.4,0.2-2.53-1.77-2.4-2.02c0.68-1.36,1.64-2.76,2.88-3.58
		C758.96,1073.72,760.43,1074.94,762.29,1075.91z"/>
	<path class="st2" d="M814.47,1039.55c-2.47,0.84-3.93,1.63-5.42,1.71c-0.59,0.03-1.27-1.5-1.9-2.32c1.35-0.68,2.65-1.66,4.08-1.92
		C811.89,1036.91,812.8,1038.19,814.47,1039.55z"/>
	<path class="st2" d="M880.05,1030.5c-1.33,0.6-2.12,1.29-2.74,1.15c-0.73-0.15-1.3-1.02-1.94-1.57c0.53-0.52,1.02-1.38,1.61-1.46
		C877.53,1028.55,878.19,1029.31,880.05,1030.5z"/>
	<path class="st2" d="M898.83,1026.74c-1.06,0.87-1.69,1.63-2.49,1.92c-0.28,0.1-1.5-1.21-1.39-1.43c0.39-0.78,1.07-1.55,1.84-1.95
		C897.07,1025.14,897.89,1026.04,898.83,1026.74z"/>
	<path class="st2" d="M1097.73,846.36c0.34-3.97,0.68-5.98,0.65-7.98c-0.03-2.39-0.37-4.78-0.58-7.17c-1.61,1.04-3.1,2.44-4.86,2.97
		c-1.03,0.31-3.19-0.43-3.62-1.3c-1.67-3.4-2.94-7.02-4.21-10.61c-1.58-4.47-0.37-6.54,4.84-6.52c1.91,0.01,5.24-2.26,5.51-3.89
		c1.12-6.81,5.96-5.05,9.65-4.26c1.03,0.22,1.84,4.66,1.59,7.05c-1.02,9.83-2.35,19.64-3.89,29.4c-0.43,2.74-1.96,5.31-2.99,7.96
		C1098.92,849.57,1098.02,847.14,1097.73,846.36z"/>
	<path class="st2" d="M1110.61,880.35c-1.19-2.51-2.42-5-3.57-7.53c-0.46-1.02-1.38-2.46-1.01-3.14c2.29-4.35,4.53-8.82,7.62-12.57
		c0.76-0.92,6.77,0.99,6.75,1.16c-1.02,8.64-2.16,17.29-4.02,25.77c-0.43,1.94-3.51,3.31-5.37,4.94c-0.74-2.63-1.47-5.26-2.21-7.89
		C1109.4,880.84,1110.01,880.59,1110.61,880.35z"/>
	<path class="st2" d="M1119.94,743.72c-0.26,5.17-0.45,8.34-0.57,11.51c-0.45,11.5-2.4,13.43-12.98,12.33
		c-0.54-0.06-1.46-2.24-1.22-3.18c1.64-6.47,3.32-12.94,5.51-19.24c0.69-1.98,3.05-4.84,4.49-4.76
		C1117.17,740.5,1119.03,743.01,1119.94,743.72z"/>
	<path class="st2" d="M1124.88,938.26c-0.35,0.96-1.13,3.07-1.92,5.19c-1.86-0.78-3.88-1.3-5.55-2.38
		c-2.98-1.93-5.89-4.04-8.54-6.39c-1.02-0.9-1.27-2.67-1.87-4.05c1.53-0.49,3.24-1.68,4.55-1.34
		C1116.58,930.62,1124.72,926.91,1124.88,938.26z"/>
	<path class="st2" d="M1075.97,885.95c-1.25,3.35-2.36,6.31-3.46,9.26c-1.01-2.71-2.03-5.42-3.04-8.12
		c-0.06-0.15-0.14-0.35-0.09-0.49c1.04-2.75,2.09-5.5,3.14-8.25C1073.62,880.78,1074.72,883.21,1075.97,885.95z"/>
	<path class="st2" d="M1088.93,845.64c-1.22,2.58-2.45,5.18-3.68,7.78c-1.29-2.14-3.95-4.56-3.57-6.34c0.65-3.05,3.2-5.7,4.95-8.51
		C1087.33,840.72,1088.02,842.87,1088.93,845.64z"/>
	<path class="st2" d="M1097.85,859.6c-1.53,2.11-2.61,3.59-3.69,5.08c-0.68-1.48-1.91-2.96-1.9-4.43c0.01-1.5,1.24-2.99,1.94-4.49
		C1095.3,856.92,1096.39,858.07,1097.85,859.6z"/>
	<path class="st2" d="M1069.91,844.49c1.12,2.62,1.97,3.9,2.14,5.27c0.09,0.71-1.04,1.56-1.62,2.35c-0.53-0.89-1.41-1.74-1.5-2.68
		C1068.82,848.28,1069.36,847.06,1069.91,844.49z"/>
	<path class="st2" d="M1032.53,1004.87c3.16,1.42,6.1,2.74,9.03,4.05c-1.83,0.72-3.81,2.27-5.45,1.97
		c-2.93-0.54-5.65-2.21-8.46-3.41C1029.1,1006.71,1030.54,1005.93,1032.53,1004.87z"/>
	<path class="st2" d="M1008.42,1015.93c-1.73,2.44-3.2,4.5-4.67,6.56c-1.3-0.99-3.86-2.56-3.71-2.88c1.33-2.89,3.13-5.56,4.79-8.29
		C1005.84,1012.61,1006.85,1013.9,1008.42,1015.93z"/>
	<path class="st2" d="M1000.79,1043.55c-2.16-2.23-3.28-3.4-4.41-4.56c2.25-1.55,4.5-3.11,6.75-4.66c0.6,1.19,1.94,2.65,1.63,3.51
		C1004.13,1039.61,1002.61,1041.06,1000.79,1043.55z"/>
	<path class="st2" d="M1023.77,991.14c-1.96-1.43-3.53-2.59-5.11-3.74c1.05-0.58,2.22-1.78,3.12-1.6c2.11,0.43,4.08,1.52,6.11,2.34
		C1026.7,989.01,1025.5,989.89,1023.77,991.14z"/>
	<path class="st2" d="M1052.35,1015.13c0.53,1.56,1.45,3.12,1.39,4.64c-0.03,0.65-2.24,1.85-3.23,1.66
		c-1.36-0.26-2.51-1.62-3.74-2.5C1047.84,1018.19,1048.91,1017.47,1052.35,1015.13z"/>
	<path class="st2" d="M961.94,1050.26c-1.33,0.53-2.87,1.74-3.93,1.4c-0.91-0.29-1.83-2.38-1.72-3.57c0.11-1.13,1.55-2.14,2.41-3.2
		C959.39,1046.04,960.09,1047.2,961.94,1050.26z"/>
	<path class="st2" d="M973.87,1033.54c1.75-0.48,3.49-1.15,5.27-1.29c0.45-0.04,1.67,1.86,1.45,2.47c-0.61,1.69-1.8,3.17-2.76,4.73
		c-0.58-1.03-1.16-2.06-1.74-3.09C975.35,1035.41,974.61,1034.48,973.87,1033.54z"/>
	<path class="st2" d="M1045.7,997.23c-0.91-1.27-1.49-2.07-2.07-2.88c1.01-0.65,1.97-1.65,3.05-1.8c0.64-0.09,1.47,1.16,2.21,1.81
		C1047.98,995.18,1047.07,995.99,1045.7,997.23z"/>
	<path class="st2" d="M1011.06,999.04c-0.79-0.85-1.81-1.56-1.7-1.91c0.24-0.75,1.06-1.31,1.65-1.95c0.52,0.55,1.4,1.07,1.45,1.66
		C1012.51,997.42,1011.72,998.07,1011.06,999.04z"/>
	<path class="st2" d="M1065.56,1010.27c-0.85,0.8-1.53,1.82-1.9,1.71c-0.73-0.2-1.29-1.02-1.92-1.58c0.55-0.52,1.05-1.37,1.66-1.45
		C1063.94,1008.87,1064.6,1009.64,1065.56,1010.27z"/>
	<path class="st2" d="M951.93,1071.99c-0.73-0.84-1.69-1.58-1.57-1.89c0.29-0.73,1.09-1.26,1.69-1.87c0.48,0.55,1.33,1.08,1.35,1.64
		C953.4,1070.45,952.62,1071.05,951.93,1071.99z"/>
	<path class="st2" d="M925.77,1085.16c0.73,1,1.53,1.61,1.5,2.19c-0.03,0.55-0.92,1.05-1.44,1.57c-0.52-0.53-1.39-1.01-1.47-1.6
		C924.29,1086.78,925.08,1086.14,925.77,1085.16z"/>
	<path class="st2" d="M964,1061.62c-1.21,0.36-2.08,0.92-2.58,0.69c-0.56-0.27-0.79-1.25-1.16-1.92c0.68-0.33,1.44-1.02,2-0.88
		C962.84,1059.64,963.21,1060.6,964,1061.62z"/>
	<path class="st2" d="M989.8,1043.42c-1.04,0.65-1.74,1.41-2.24,1.3c-0.5-0.11-1.01-1.07-1.1-1.71c-0.05-0.33,0.9-1.17,1.27-1.1
		C988.34,1042.03,988.85,1042.69,989.8,1043.42z"/>
	<path class="st2" d="M600.41,1052.01c-1.01,0.91-1.66,1.94-2.36,1.98c-0.61,0.04-1.29-1.04-1.94-1.62
		c0.68-0.61,1.28-1.46,2.07-1.72C598.63,1050.5,599.4,1051.35,600.41,1052.01z"/>
	<path class="st2" d="M621.17,540.07c2,1.78,4.97,3.31,4.85,4.55c-0.19,2-2.42,3.8-3.78,5.69c-1.93-2.33-3.86-4.67-5.8-7
		C617.73,542.42,619.02,541.53,621.17,540.07z"/>
	<path class="st2" d="M656.76,515.46c-1.62-1.29-2.79-2.22-3.96-3.15c1.29-0.73,2.59-2.05,3.88-2.04c1.3,0.01,2.6,1.32,3.9,2.06
		C659.44,513.26,658.3,514.2,656.76,515.46z"/>
	<path class="st2" d="M635.1,518.68c0.56,1.59,0.96,2.27,0.97,2.95c0.01,0.37-0.66,0.75-1.03,1.13c-0.29-0.54-0.76-1.06-0.82-1.63
		C634.17,520.64,634.56,520.1,635.1,518.68z"/>
</g>
<g id="computer_icon" class="st1">
	<path class="st2" d="M324.74,1070.31c41.77,0,83.83,0,130.75,0c-7.63-5.15-11.53-7.66-15.29-10.34
		c-25.34-18.08-38.84-42.36-38.83-73.83c0.03-128.62-0.55-257.24,0.26-385.86c0.34-55,35.66-87.57,92.77-87.69
		c137.85-0.29,275.71-0.1,413.56-0.1c64.64,0,129.28-0.1,193.92,0.03c64.64,0.13,96.9,32.61,96.96,97.74
		c0.11,120.71-0.67,241.42,0.41,362.11c0.38,42-12.7,74.57-56.06,97.24c47.91,0,90.27,0,135.32,0c0,25.46,0.5,49.03-0.51,72.54
		c-0.16,3.75-6.58,8.8-11.11,10.39c-5.31,1.86-11.72,0.67-17.66,0.67c-299.46,0.01-598.91,0.02-898.37,0
		c-29.49,0-29.58-0.05-29.51-28.92c0.04-15.82,0.38-31.63,0.78-47.44C322.19,1075.04,323.53,1073.26,324.74,1070.31z M800.11,987.68
		c96.98,0,193.96-0.45,290.93,0.39c18.53,0.16,23.46-5.99,23.36-23.74c-0.63-115.45-0.64-230.9,0.02-346.35
		c0.1-17.33-5.01-22.06-22.42-22.01c-194.61,0.63-389.23,0.64-583.85,0c-17.47-0.06-22.48,4.77-22.38,22.05
		c0.65,115.45,0.65,230.9,0.01,346.35c-0.1,17.81,4.93,23.86,23.4,23.7C606.15,987.23,703.13,987.68,800.11,987.68z"/>
</g>
<g id="hheu" class="st1">
	<path class="st3" d="M1631.29,1222.48c0.73,33.13-12.87,55.24-43.13,71.97c-256.86,142.03-513.3,284.82-769.06,428.81
		c-35.97,20.25-66.2,19.59-100.33-1.73c-228.33-142.64-456.32-285.88-686.42-425.63c-50.18-30.48-63.57-66.7-62.55-122.72
		c4.54-247.65,6.16-495.39,5.21-743.09c-0.24-63.64,13.89-105.27,75.8-138.5C300.59,157.52,547.08,17.28,794.37-121.44
		c31.6-17.73,59.91-16.57,89.98,1.77c188.97,115.25,378.12,230.22,567.26,345.19c44.31,26.93,88.22,54.58,133.43,79.93
		c31.46,17.64,45.11,42.85,45.04,78.08c-0.47,241.72-0.67,483.45-0.7,725.17C1629.36,1146.63,1630.62,1184.55,1631.29,1222.48z
		 M597.17,359.1c-2.12,3.86-4.24,7.73-6.36,11.59c208.35,231.26,416.71,462.51,631.39,700.8c98.44-227.86,192.2-444.88,289.76-670.7
		C1201.92,386.66,899.55,372.88,597.17,359.1z M541.96,428.99c-4.49,1.22-8.99,2.44-13.48,3.66c1.54,254.89,3.08,509.78,4.67,771.26
		c211.84-30.86,413.68-60.27,625.33-91.1C947.7,879.02,744.83,654.01,541.96,428.99z M1393.75,321.15c1.84-4.5,3.68-9.01,5.52-13.51
		C1215.9,196.33,1032.54,85.02,845.48-28.53C755.1,74.35,666.71,174.96,570.83,284.1C855.01,296.89,1124.38,309.02,1393.75,321.15z
		 M459.6,1206.35c-2.08-242.49-4.08-475.5-6.09-708.52c-4.12-0.31-8.24-0.62-12.35-0.93c-116,229.1-231.99,458.19-350.49,692.23
		C217.36,1195.06,334.45,1200.52,459.6,1206.35z M71,1036.68c3.4,1.29,6.8,2.59,10.21,3.88
		c113.43-223.35,226.86-446.7,345.68-680.67c-125.64,15.68-237.41,29.62-351.91,43.9C73.63,619.13,72.32,827.91,71,1036.68z
		 M558.36,1275.74c72.95,115.76,142.52,226.15,216.04,342.81c122.12-142.89,237.99-278.48,353.87-414.07
		c-2.05-3.32-4.1-6.63-6.14-9.95C937.11,1221.18,752.11,1247.83,558.36,1275.74z M1530.81,581.65c-4.19-1.82-8.38-3.63-12.57-5.45
		c-77.12,178.08-154.24,356.16-234.12,540.61c85.38,23.34,162.54,44.43,247.84,67.75C1531.56,975.08,1531.18,778.36,1530.81,581.65z
		 M958.39,1518.6c2.32,3.75,4.64,7.5,6.96,11.25c165.19-92.25,330.37-184.49,505.3-282.17c-81.67-23.86-151.63-44.3-223.7-65.36
		C1149.55,1295.83,1053.97,1407.22,958.39,1518.6z M624.13,1546.8c3.23-3.15,6.46-6.3,9.69-9.46
		c-53.12-84.59-106.25-169.17-159.35-253.73c-94.09-5.27-184.15-10.32-274.2-15.36c-1.08,4.46-2.15,8.93-3.23,13.39
		C339.39,1370.02,481.76,1458.41,624.13,1546.8z M636.27,93.93c-3.3-3.29-6.6-6.58-9.91-9.87
		c-124,69.34-247.99,138.68-371.99,208.01c1.13,4.31,2.26,8.62,3.39,12.92c71.16-8.32,142.32-16.65,215.91-25.25
		C528.04,217.61,582.16,155.77,636.27,93.93z"/>
</g>
<g id="hheu_clipped">
	<path class="st4" d="M1246.95,1182.32c59.05,17.25,116.68,34.09,180.5,52.74l63.05-36.4v-25.44
		c-69.41-18.97-135.04-36.91-206.38-56.41c70.3-162.34,138.47-319.75,206.38-476.56V450.49c-89.91,208.1-177.09,409.9-268.29,621
		c-214.69-238.29-423.04-469.54-631.39-700.8c2.12-3.86,4.24-7.73,6.36-11.59c294.44,13.42,588.91,26.84,890.44,40.58l-139.58-80.59
		c-254.18-11.44-509.1-22.92-777.21-34.99C654.84,188.47,733.1,99.39,811.98,9.6L800,2.68l-169.53,97.88
		c-52.18,59.63-104.37,119.27-156.79,179.17c-65.54,7.67-129.16,15.11-192.56,22.52l-167.53,96.72
		c101.24-12.63,201.81-25.18,313.3-39.09C317.95,574.4,213.54,780,109.5,984.84v167.1C221.47,930.8,331.32,713.85,441.16,496.91
		c4.12,0.31,8.24,0.62,12.35,0.93c2,233.01,4,466.03,6.09,708.52c-118.91-5.55-230.57-10.76-350.09-16.33v8.64l123.73,71.43
		c79.12,4.43,158.61,8.89,241.23,13.51c41.3,65.75,82.6,131.53,123.91,197.3l140.35,81.03c-60.61-96.18-119.31-189.31-180.36-286.2
		c193.75-27.91,378.76-54.56,563.76-81.21c2.05,3.32,4.1,6.63,6.14,9.95c-109.34,127.94-218.68,255.88-333.26,389.96l5,2.89
		l180.04-103.95C1068.41,1390.39,1156.9,1287.26,1246.95,1182.32z M533.14,1203.91c-1.58-261.49-3.12-516.38-4.67-771.26
		c4.49-1.22,8.99-2.44,13.48-3.66c202.87,225.02,405.74,450.04,616.51,683.82C946.83,1143.64,744.98,1173.05,533.14,1203.91z"/>
</g>
<g id="text">
	<g>
		<g>
			<path class="st5" d="M318.25,582.58c0-17.91,14.73-37.18,36.31-37.18c15.82,0,26.11,11.9,26.11,27.72
				c0,18.52-14.6,37.05-36.18,37.05C328.67,610.17,318.25,598.88,318.25,582.58z"/>
			<path class="st6" d="M474.69,346.26h50.65l-14.03,67.56l-8.11,29.85h1.48c16.38-14.51,35.77-26.14,57.86-26.14
				c30.37,0,43.44,16.56,43.44,47.23c0,8.28-0.74,17-2.96,26.14l-22.96,114.81h-50.65l21.74-108.45c1.61-7.45,2.96-12.63,2.96-17.6
				c0-12.59-6.58-18.95-18.69-18.95c-11.41,0-22.65,7.58-38.59,24l-23.61,120.99h-50.65L474.69,346.26z"/>
			<path class="st6" d="M631.03,542.8c0-69.98,47.41-125.27,98.12-125.27c16.6,0,32.76,9.41,39.95,24.14h0.87l7.89-19.69h40.63
				l-36.78,183.75h-41.24l0.78-24.01h-0.87c-16.69,17.43-38.43,28.45-57.51,28.45C650.55,610.17,631.03,586.12,631.03,542.8z
				 M744.22,541.62l13.16-65.13c-6.14-12.24-16.07-17.59-24.69-17.59c-25.52,0-49.17,33.58-49.17,77.41
				c0,22.52,8.36,32.49,21.47,32.49C717.22,568.8,732.38,562.53,744.22,541.62z"/>
			<path class="st6" d="M834.72,534.44c0-63.52,47.54-116.9,108.11-116.9c23.05,0,39.92,11.2,49.33,22.7L964,470.22
				c-7.45-7.84-14.03-11.94-24.35-11.94c-29.27,0-53.06,34.11-53.06,75.15c0,22.43,10.32,35.98,31.1,35.98
				c12.42,0,21.39-5.84,29.23-11.94l21.18,31.34c-13.81,10.24-32.81,21.35-61.53,21.35C865.75,610.17,834.72,582.54,834.72,534.44z"
				/>
			<path class="st6" d="M1045.41,346.26h50.65l-30.23,150.34h1.35l69.48-74.62h56.05l-74.99,80.26l43.57,103.48h-50.78l-27.79-74.1
				l-29.75,29.88l-9.02,44.22H993.3L1045.41,346.26z"/>
			<path class="st6" d="M318.25,894.47c0-17.91,14.73-37.18,36.31-37.18c15.82,0,26.11,11.9,26.11,27.72
				c0,18.52-14.6,37.05-36.18,37.05C328.67,922.06,318.25,910.77,318.25,894.47z"/>
			<path class="st6" d="M428.81,854.69c0-69.98,47.41-125.27,98.12-125.27c16.6,0,32.76,9.41,39.95,24.14h0.87l7.89-19.69h40.63
				L579.5,917.61h-41.24l0.78-24.01h-0.87c-16.69,17.43-38.43,28.45-57.51,28.45C448.33,922.06,428.81,898,428.81,854.69z
				 M542.01,853.51l13.16-65.13c-6.14-12.24-16.07-17.59-24.69-17.59c-25.52,0-49.17,33.58-49.17,77.41
				c0,22.52,8.36,32.49,21.47,32.49C515,880.69,530.16,874.42,542.01,853.51z"/>
			<path class="st6" d="M644.84,873.46c0-7.89,1.35-15.38,2.7-23.14l16.03-76.93h-24.49l7.58-37.44l27.06-2.09l15.51-48.06h42.46
				l-9.15,48.06h41.56l-7.72,39.53h-42.78l-16.03,78.89c-0.74,4.44-0.87,8.28-0.87,12.24c0,12.15,5.93,17.99,19.21,17.99
				c5.23,0,10.19-1.87,14.9-4.22l9.2,35.61c-9.72,3.7-24.23,8.15-43.14,8.15C659.83,922.06,644.84,901.62,644.84,873.46z"/>
			<path class="st6" d="M815.05,658.14h50.65l-14.03,67.56l-8.11,29.85h1.48c16.38-14.51,35.77-26.14,57.86-26.14
				c30.37,0,43.44,16.56,43.44,47.23c0,8.28-0.74,17-2.96,26.14l-22.96,114.81h-50.65l21.74-108.45c1.61-7.45,2.96-12.63,2.96-17.6
				c0-12.59-6.58-18.95-18.69-18.95c-11.41,0-22.65,7.58-38.59,24l-23.61,120.99h-50.65L815.05,658.14z"/>
			<path class="st6" d="M970.77,846.32c0-70.81,52.38-116.9,102.97-116.9c42.88,0,71.33,30.07,71.33,75.73
				c0,70.81-52.38,116.9-102.96,116.9C999.23,922.06,970.77,891.99,970.77,846.32z M1093.81,806.15c0-22.43-8.62-35.98-25.7-35.98
				c-24.74,0-46.08,32.28-46.08,75.15c0,22.43,8.62,35.98,25.7,35.98C1072.47,881.3,1093.81,849.02,1093.81,806.15z"/>
			<path class="st6" d="M1198.72,733.87h41.24l-0.78,24.62h1.48c17.95-15.6,38.56-29.06,61.87-29.06
				c30.37,0,43.44,16.56,43.44,47.23c0,8.28-1.05,17-2.96,26.14l-22.96,114.81h-50.65l21.74-108.45c1.61-7.45,2.96-12.63,2.96-17.6
				c0-12.59-6.58-18.95-18.69-18.95c-11.41,0-22.65,7.58-38.59,24l-23.61,120.99h-50.65L1198.72,733.87z"/>
			<path class="st6" d="M318.25,1206.35c0-17.91,14.73-37.18,36.31-37.18c15.82,0,26.11,11.9,26.11,27.72
				c0,18.52-14.6,37.05-36.18,37.05C328.67,1233.94,318.25,1222.65,318.25,1206.35z"/>
			<path class="st6" d="M577.01,1229.5h-41.24l0.78-24.75h-1.48c-16.73,15.6-37.95,29.19-60.04,29.19
				c-30.37,0-43.44-16.56-43.44-47.23c0-8.28,1.05-17,2.96-26.14l22.96-114.81h50.65l-21.74,108.45c-1.61,7.45-2.96,12.63-2.96,17.6
				c0,12.59,6.58,18.95,18.69,18.95c10.8,0,22.04-7.58,36.76-24l23.61-120.99h50.65L577.01,1229.5z"/>
			<path class="st6" d="M676.54,970.03h50.65l-30.23,150.34h1.35l69.48-74.62h56.06l-74.99,80.26l43.57,103.48h-50.78l-27.79-74.1
				l-29.75,29.88l-9.02,44.22h-50.65L676.54,970.03z"/>
		</g>
	</g>
	<g>
		<g>
			<path class="st5" d="M318.25,582.58c0-17.91,14.73-37.18,36.31-37.18c15.82,0,26.11,11.9,26.11,27.72
				c0,18.52-14.6,37.05-36.18,37.05C328.67,610.17,318.25,598.88,318.25,582.58z"/>
			<path class="st6" d="M474.69,346.26h50.65l-14.03,67.56l-8.11,29.85h1.48c16.38-14.51,35.77-26.14,57.86-26.14
				c30.37,0,43.44,16.56,43.44,47.23c0,8.28-0.74,17-2.96,26.14l-22.96,114.81h-50.65l21.74-108.45c1.61-7.45,2.96-12.63,2.96-17.6
				c0-12.59-6.58-18.95-18.69-18.95c-11.41,0-22.65,7.58-38.59,24l-23.61,120.99h-50.65L474.69,346.26z"/>
			<path class="st6" d="M631.03,542.8c0-69.98,47.41-125.27,98.12-125.27c16.6,0,32.76,9.41,39.95,24.14h0.87l7.89-19.69h40.63
				l-36.78,183.75h-41.24l0.78-24.01h-0.87c-16.69,17.43-38.43,28.45-57.51,28.45C650.55,610.17,631.03,586.12,631.03,542.8z
				 M744.22,541.62l13.16-65.13c-6.14-12.24-16.07-17.59-24.69-17.59c-25.52,0-49.17,33.58-49.17,77.41
				c0,22.52,8.36,32.49,21.47,32.49C717.22,568.8,732.38,562.53,744.22,541.62z"/>
			<path class="st6" d="M834.72,534.44c0-63.52,47.54-116.9,108.11-116.9c23.05,0,39.92,11.2,49.33,22.7L964,470.22
				c-7.45-7.84-14.03-11.94-24.35-11.94c-29.27,0-53.06,34.11-53.06,75.15c0,22.43,10.32,35.98,31.1,35.98
				c12.42,0,21.39-5.84,29.23-11.94l21.18,31.34c-13.81,10.24-32.81,21.35-61.53,21.35C865.75,610.17,834.72,582.54,834.72,534.44z"
				/>
			<path class="st6" d="M1045.41,346.26h50.65l-30.23,150.34h1.35l69.48-74.62h56.05l-74.99,80.26l43.57,103.48h-50.78l-27.79-74.1
				l-29.75,29.88l-9.02,44.22H993.3L1045.41,346.26z"/>
			<path class="st6" d="M318.25,894.47c0-17.91,14.73-37.18,36.31-37.18c15.82,0,26.11,11.9,26.11,27.72
				c0,18.52-14.6,37.05-36.18,37.05C328.67,922.06,318.25,910.77,318.25,894.47z"/>
			<path class="st6" d="M428.81,854.69c0-69.98,47.41-125.27,98.12-125.27c16.6,0,32.76,9.41,39.95,24.14h0.87l7.89-19.69h40.63
				L579.5,917.61h-41.24l0.78-24.01h-0.87c-16.69,17.43-38.43,28.45-57.51,28.45C448.33,922.06,428.81,898,428.81,854.69z
				 M542.01,853.51l13.16-65.13c-6.14-12.24-16.07-17.59-24.69-17.59c-25.52,0-49.17,33.58-49.17,77.41
				c0,22.52,8.36,32.49,21.47,32.49C515,880.69,530.16,874.42,542.01,853.51z"/>
			<path class="st6" d="M644.84,873.46c0-7.89,1.35-15.38,2.7-23.14l16.03-76.93h-24.49l7.58-37.44l27.06-2.09l15.51-48.06h42.46
				l-9.15,48.06h41.56l-7.72,39.53h-42.78l-16.03,78.89c-0.74,4.44-0.87,8.28-0.87,12.24c0,12.15,5.93,17.99,19.21,17.99
				c5.23,0,10.19-1.87,14.9-4.22l9.2,35.61c-9.72,3.7-24.23,8.15-43.14,8.15C659.83,922.06,644.84,901.62,644.84,873.46z"/>
			<path class="st6" d="M815.05,658.14h50.65l-14.03,67.56l-8.11,29.85h1.48c16.38-14.51,35.77-26.14,57.86-26.14
				c30.37,0,43.44,16.56,43.44,47.23c0,8.28-0.74,17-2.96,26.14l-22.96,114.81h-50.65l21.74-108.45c1.61-7.45,2.96-12.63,2.96-17.6
				c0-12.59-6.58-18.95-18.69-18.95c-11.41,0-22.65,7.58-38.59,24l-23.61,120.99h-50.65L815.05,658.14z"/>
			<path class="st6" d="M970.77,846.32c0-70.81,52.38-116.9,102.97-116.9c42.88,0,71.33,30.07,71.33,75.73
				c0,70.81-52.38,116.9-102.96,116.9C999.23,922.06,970.77,891.99,970.77,846.32z M1093.81,806.15c0-22.43-8.62-35.98-25.7-35.98
				c-24.74,0-46.08,32.28-46.08,75.15c0,22.43,8.62,35.98,25.7,35.98C1072.47,881.3,1093.81,849.02,1093.81,806.15z"/>
			<path class="st6" d="M1198.72,733.87h41.24l-0.78,24.62h1.48c17.95-15.6,38.56-29.06,61.87-29.06
				c30.37,0,43.44,16.56,43.44,47.23c0,8.28-1.05,17-2.96,26.14l-22.96,114.81h-50.65l21.74-108.45c1.61-7.45,2.96-12.63,2.96-17.6
				c0-12.59-6.58-18.95-18.69-18.95c-11.41,0-22.65,7.58-38.59,24l-23.61,120.99h-50.65L1198.72,733.87z"/>
			<path class="st6" d="M318.25,1206.35c0-17.91,14.73-37.18,36.31-37.18c15.82,0,26.11,11.9,26.11,27.72
				c0,18.52-14.6,37.05-36.18,37.05C328.67,1233.94,318.25,1222.65,318.25,1206.35z"/>
			<path class="st6" d="M577.01,1229.5h-41.24l0.78-24.75h-1.48c-16.73,15.6-37.95,29.19-60.04,29.19
				c-30.37,0-43.44-16.56-43.44-47.23c0-8.28,1.05-17,2.96-26.14l22.96-114.81h50.65l-21.74,108.45c-1.61,7.45-2.96,12.63-2.96,17.6
				c0,12.59,6.58,18.95,18.69,18.95c10.8,0,22.04-7.58,36.76-24l23.61-120.99h50.65L577.01,1229.5z"/>
			<path class="st6" d="M676.54,970.03h50.65l-30.23,150.34h1.35l69.48-74.62h56.06l-74.99,80.26l43.57,103.48h-50.78l-27.79-74.1
				l-29.75,29.88l-9.02,44.22h-50.65L676.54,970.03z"/>
		</g>
	</g>
</g>
</svg>
